<?xml version="1.0" encoding="UTF-8"?>
<svg version="1.1" xmlns="http://www.w3.org/2000/svg" width="512" height="512">
<path d="M0 0 C0.85207031 0.32742187 1.70414062 0.65484375 2.58203125 0.9921875 C17.21354844 7.30562956 27.95718567 21.10866299 33.77734375 35.49609375 C36.29892167 42.7224688 37.09358425 49.3728838 37 57 C45.08357097 57.38290748 45.08357097 57.38290748 53 56 C55.38819715 53.65081152 56.4249036 51.55772357 57.78515625 48.515625 C60.07531603 43.77330057 64.12558372 41.9154126 68.6875 39.6875 C77.64641831 37.82810186 86.07472232 38.24401854 93.8671875 43.18359375 C99.8790723 47.73766099 103.4113158 53.74494926 104.4453125 61.21875 C104.76201267 70.25526145 102.93347164 76.99496494 96.9375 83.8125 C91.77348027 88.57758258 84.87655073 91.10209637 77.875 91.4375 C69.00512427 90.43606242 63.14214286 87.54585178 57 81 C54.75360239 77.91120329 54 76.80672941 54 73 C48.39 73 42.78 73 37 73 C37 88.84 37 104.68 37 121 C45.07057711 121.01634666 53.13632393 121.02595005 61.20594788 120.97145844 C64.96423838 120.9479879 68.72164305 120.93663173 72.47998047 120.95532227 C76.10508446 120.97287102 79.72860378 120.95612352 83.35351562 120.91632271 C84.73125481 120.9070811 86.10913271 120.90986939 87.48681641 120.92530632 C96.754995 121.09074212 96.754995 121.09074212 104.59936523 116.73510742 C105.75872295 115.51407182 106.89538 114.27076863 108 113 C108.88051025 112.18837402 109.76102051 111.37674805 110.66821289 110.54052734 C113.14857132 108.16764498 115.60825413 105.77487373 118.0625 103.375 C118.94099609 102.54226562 119.81949219 101.70953125 120.72460938 100.8515625 C121.96114258 99.63726562 121.96114258 99.63726562 123.22265625 98.3984375 C123.97297119 97.67317871 124.72328613 96.94791992 125.49633789 96.20068359 C127.27363713 94.09178668 127.27363713 94.09178668 126.80639648 91.45556641 C126.40723022 90.24006104 126.40723022 90.24006104 126 89 C123.66225068 81.33737724 123.28339278 74.4000903 126.5 66.875 C129.68287785 61.15975948 134.85913994 56.29952027 140.8984375 53.80078125 C149.21921464 51.65246977 157.27044772 52.07361172 164.7734375 56.375 C170.00551947 60.19350193 174.05875717 64.76093584 176 71 C176.98802988 80.10027517 176.78591024 88.50078624 171 96 C165.3262093 101.79713397 158.34563155 104.70538091 150.3125 105.25 C147 105 147 105 144.20849609 104.1027832 C140.61210916 103.98757403 140.30182143 104.19498958 137.78369141 106.48510742 C136.62202423 107.67493885 135.47898694 108.88314164 134.3515625 110.10546875 C133.73534027 110.74108231 133.11911804 111.37669586 132.48422241 112.03157043 C130.51377963 114.0676614 128.56808877 116.12531403 126.625 118.1875 C124.68675125 120.22927325 122.74351159 122.2653912 120.78720093 124.28987122 C119.57168128 125.54916652 118.36654968 126.81860405 117.17398071 128.09965515 C110.9650123 134.56219538 106.03210958 137.1574808 96.94140625 137.45410156 C94.14756822 137.46968367 91.35598798 137.43194168 88.5625 137.390625 C87.07178511 137.38315296 85.58106031 137.37746458 84.09033203 137.37347412 C80.19061565 137.35829323 76.29150711 137.31907846 72.39202881 137.2746582 C67.70054178 137.22629606 63.00885007 137.20813541 58.31718445 137.18484497 C51.21103518 137.14622098 44.10621629 137.06951733 37 137 C37 147.23 37 157.46 37 168 C39.60406738 167.98428955 42.20813477 167.9685791 44.89111328 167.95239258 C53.50047191 167.90265576 62.10983692 167.86953462 70.71930122 167.84456348 C75.93859591 167.82891589 81.15774324 167.80769399 86.37695312 167.77368164 C91.41495078 167.74105613 96.45280679 167.72314017 101.49090195 167.71536827 C103.41181543 167.70983051 105.33272127 167.6990166 107.25357437 167.68280983 C109.94672574 167.66099321 112.63929383 167.65803485 115.33251953 167.65942383 C116.12446213 167.648638 116.91640472 167.63785217 117.73234558 167.6267395 C125.00174146 167.66723629 129.55673216 170.2615634 134.875 175.1875 C135.72835938 175.97769531 136.58171875 176.76789063 137.4609375 177.58203125 C149.78003513 189.31360269 149.78003513 189.31360269 150.375 193.875 C149.89467195 197.87773372 149.07536739 199.38593772 146 202 C142.60675017 202.66752456 141.17496191 202.93873638 138 202 C135.99309558 200.50903179 134.45247594 198.88376293 132.796875 197.01171875 C130.90866319 194.89774249 128.90235327 193.09206877 126.75 191.25 C123.07223609 188.1018341 123.07223609 188.1018341 121.88517761 186.4283905 C118.90316679 184.16893446 115.63707071 184.56088249 112.0402832 184.56762695 C111.23029877 184.5574353 110.42031433 184.54724365 109.58578491 184.53674316 C106.90738068 184.50653875 104.22933363 184.49733598 101.55078125 184.48828125 C99.69417627 184.47144006 97.83758274 184.45329058 95.98100281 184.43388367 C91.09349136 184.38631663 86.20602629 184.35655069 81.31835938 184.33044434 C75.45453085 184.29543854 69.59088049 184.23840682 63.72719574 184.18505096 C54.81815277 184.10645848 45.90934429 184.05591235 37 184 C37 197.86 37 211.72 37 226 C42.94 226 48.88 226 55 226 C55.33 224.35 55.66 222.7 56 221 C59.99544386 214.5486411 65.78001987 210.21837227 73 208 C81.18205332 206.90202123 88.27355892 207.79401331 95.125 212.44140625 C101.3631158 217.38373697 104.43697269 222.42071118 105.41015625 230.3359375 C105.74494175 238.25061003 104.86140065 244.59286274 100 251 C94.37289693 256.76166423 87.04545295 259.99188319 79 260.375 C70.20847119 259.93891226 63.95794232 256.34954417 58 250 C55.75360239 246.91120329 55 245.80672941 55 242 C49.06 242 43.12 242 37 242 C37 259.49 37 276.98 37 295 C50.58821158 295.02560882 50.58821158 295.02560882 64.17578125 294.98632812 C69.71749406 294.95590146 75.25850863 294.9330921 80.80029297 294.95532227 C85.26817169 294.97276976 89.73475563 294.95632374 94.2024765 294.91632271 C95.90729285 294.90702494 97.61222106 294.9099632 99.31699371 294.92530632 C101.7052914 294.94471527 104.08949173 294.92071185 106.47753906 294.88647461 C107.18316483 294.9022908 107.88879059 294.91810699 108.61579895 294.93440247 C110.86193368 294.946173 110.86193368 294.946173 114 294 C115.84294148 291.78527327 116.77227632 289.65849989 118 287 C123.69226038 280.78717505 129.24518914 277.77691221 137.609375 277.04296875 C145.66054988 276.89825809 151.9102929 279.84444214 158 285 C163.48240681 290.81588654 165.51948853 297.66781477 165.31640625 305.6015625 C164.38623236 312.65251026 161.18016953 319.15766761 156 324 C148.54469512 329.35361893 140.99086911 330.26820745 132 329 C125.23156499 326.93489953 119.65850534 323.14282822 116 317 C115.34 315.02 114.68 313.04 114 311 C88.59 311 63.18 311 37 311 C37 327.5 37 344 37 361 C58.12 361 79.24 361 101 361 C101.66 359.02 102.32 357.04 103 355 C106.65850534 348.85717178 112.23156499 345.06510047 119 343 C127.96272682 341.73576216 135.5952793 342.59987219 143 348 C148.47391144 352.78821977 151.44089118 358.40288302 152.31640625 365.6015625 C152.65984192 373.46734723 151.19915509 380.1688326 146.08203125 386.296875 C140.23378832 391.9691531 134.37752356 394.83476883 126.203125 395.0859375 C117.71380934 394.64036568 111.84630816 392.32169235 106.125 386 C103.8923938 383.34164099 102.5877916 381.1755832 101 378 C69.32 377.505 69.32 377.505 37 377 C37 389.87 37 402.74 37 416 C40.0834375 415.95359375 43.166875 415.9071875 46.34375 415.859375 C49.34894161 415.82812922 52.35411473 415.80387002 55.359375 415.78027344 C57.43888525 415.76022841 59.51833963 415.73298487 61.59765625 415.69824219 C64.59649487 415.64941052 67.59458463 415.62695972 70.59375 415.609375 C71.51490601 415.58872986 72.43606201 415.56808472 73.38513184 415.54681396 C80.85734548 415.54424948 85.89804796 417.3307142 91.57299805 422.21411133 C92.29527588 422.9955249 93.01755371 423.77693848 93.76171875 424.58203125 C94.57060547 425.43087891 95.37949219 426.27972656 96.21289062 427.15429688 C97.87781474 428.94274338 99.53921648 430.7344748 101.19726562 432.52929688 C102.00228516 433.37169922 102.80730469 434.21410156 103.63671875 435.08203125 C104.35561279 435.85780518 105.07450684 436.6335791 105.81518555 437.43286133 C107.90711406 439.29470496 107.90711406 439.29470496 110.59790039 438.75976562 C111.39059326 438.50904297 112.18328613 438.25832031 113 438 C122.47338721 437.19290975 128.74366386 438.774521 136.75 443.6875 C141.89576161 448.97619943 145.11069106 455.68054143 145.3125 463.0625 C145.20018465 470.15708637 143.69985887 475.82496597 139.046875 481.296875 C132.9931559 487.0965919 127.36659719 489.50699709 119.125 490.4375 C112.12344927 490.10209637 105.22651973 487.57758258 100.0625 482.8125 C94.2022465 476.16336622 92.54376645 469.85942602 92.6640625 461.08984375 C93 458 93 458 93.67602539 456.16235352 C94.79830662 453.0437919 95.3405394 450.98002312 94.23046875 447.78540039 C90.38641392 441.19487707 84.99489939 436.04737574 78 433 C64.79273944 430.1093833 50.4068834 431.31705555 37 432 C37.01571045 432.59312988 37.0314209 433.18625977 37.04760742 433.79736328 C37.50517387 453.74880486 36.36728412 471.67763419 22.5625 487.4375 C21.0632716 488.97963561 19.54351854 490.50219542 18 492 C17.36320312 492.64582031 16.72640625 493.29164063 16.0703125 493.95703125 C10.75692397 499.01687635 4.71978557 502.14603702 -2 505 C-3.20849609 505.51433594 -3.20849609 505.51433594 -4.44140625 506.0390625 C-19.39276637 511.1748427 -38.23590731 509.25204523 -52.234375 502.421875 C-62.30562025 496.86014255 -74.1252353 488.27910162 -77.703125 476.73046875 C-79.02284033 474.56230715 -79.02284033 474.56230715 -82.7109375 474.3125 C-84.2646459 474.19462667 -85.81950416 474.09130496 -87.375 474 C-95.07627504 473.34423124 -101.82421788 472.00749692 -109 469 C-109.8353125 468.66355469 -110.670625 468.32710938 -111.53125 467.98046875 C-128.21442581 460.50999604 -138.3284214 446.53582684 -145 430 C-146.99274073 424.40134748 -147.54966103 418.88995971 -148 413 C-149.02480469 413.03480469 -150.04960937 413.06960938 -151.10546875 413.10546875 C-152.46612936 413.13362035 -153.8268078 413.16091904 -155.1875 413.1875 C-156.19780273 413.22520508 -156.19780273 413.22520508 -157.22851562 413.26367188 C-161.69751197 413.32907182 -164.45618488 412.75630065 -168 410 C-169.44430855 407.11138291 -169.37688506 405.20352299 -169 402 C-167.35794025 399.15797351 -166.85262106 398.36746471 -164 397 C-160.60301136 396.55125645 -157.24345836 396.42417885 -153.8203125 396.28125 C-143.0651956 395.48946225 -134.6082246 391.67003454 -125.9375 385.609375 C-122.59977124 383.78072573 -120.7478031 383.50934054 -117 384 C-113.67725596 386.45594125 -112.22381992 387.9256644 -111.375 392 C-112.68570578 398.29138775 -118.60240069 401.26531281 -123.62109375 404.66796875 C-126.3294893 406.18449236 -129.03556175 407.10000508 -132 408 C-130.26580428 420.71743529 -127.51226996 432.71769701 -118 442 C-118 442.66 -118 443.32 -118 444 C-117.13568359 444.40605469 -117.13568359 444.40605469 -116.25390625 444.8203125 C-113.98037607 446.0102711 -112.01682437 447.37477718 -109.9375 448.875 C-99.74746548 455.75243254 -88.02760482 458.35013608 -75.91796875 456.5390625 C-66.21182604 454.58171462 -58.39893992 450.80291494 -50.6875 444.625 C-48.10831875 442.62072827 -47.06286527 442.01208948 -43.75 441.375 C-40.29378467 442.16050348 -39.08114289 443.14806345 -37 446 C-35.69255538 449.31219303 -35.83426588 450.5932972 -37.1875 453.9140625 C-42.25082549 462.53481064 -53.23754125 466.96284623 -62 471 C-55.51356002 481.15154224 -45.65843748 487.82127975 -34.00390625 490.75390625 C-20.21402421 493.38606861 -8.75341047 490.36759351 3 483 C8.62845977 478.56626046 12.54993851 473.23664961 16 467 C15.19175781 467.05800781 14.38351562 467.11601562 13.55078125 467.17578125 C4.85546835 467.54289337 4.85546835 467.54289337 0.75 464.9375 C-1.44829471 461.2475053 -1.69182497 459.22781927 -1 455 C0.32 453.68 1.64 452.36 3 451 C8.94 451 14.88 451 21 451 C21 433.18 21 415.36 21 397 C14.07 397.12375 14.07 397.12375 7 397.25 C5.55882812 397.26579102 4.11765625 397.28158203 2.6328125 397.29785156 C-5.68334271 397.51779442 -11.39686761 398.19781264 -17.953125 403.61328125 C-21.75492189 408.59455128 -23.3234819 413.8391773 -24.62011719 419.89575195 C-25.70758574 424.80505716 -25.70758574 424.80505716 -29 427 C-32.01550927 427.33505659 -34.09883544 427.56038591 -37 427 C-40.10502911 424.43835098 -40.88125944 422.84814684 -41.4375 418.875 C-39.99976961 406.14081653 -35.29172922 395.98326599 -25.375 387.69140625 C-11.18182131 377.58343524 2.89163175 381 21 381 C21 347.34 21 313.68 21 279 C12.17894531 279.03480469 3.35789062 279.06960938 -5.73046875 279.10546875 C-12.02295703 279.12274282 -18.31542754 279.1381222 -24.60792446 279.1507616 C-32.76251392 279.16739408 -40.91701144 279.18851922 -49.0715332 279.22631836 C-55.5271908 279.25622838 -61.98277908 279.2755768 -68.43850404 279.28226548 C-71.85650706 279.28617506 -75.27431177 279.29535772 -78.69225121 279.31719017 C-82.50874042 279.33891346 -86.3248165 279.34196898 -90.14135742 279.34057617 C-91.83960411 279.35675491 -91.83960411 279.35675491 -93.57215881 279.3732605 C-94.61397308 279.36913651 -95.65578735 279.36501251 -96.72917175 279.36076355 C-97.63160708 279.36352893 -98.53404242 279.36629431 -99.46382427 279.36914349 C-102.57215296 278.91672244 -104.46228438 277.82106351 -107 276 C-108.54586876 272.90826248 -108.29359521 270.40570448 -108 267 C-105.99948758 264.40434261 -104.80318325 263.16172716 -101.55563736 262.50780869 C-100.63753155 262.51149586 -99.71942574 262.51518303 -98.77349854 262.51898193 C-97.71842228 262.51347195 -96.66334602 262.50796196 -95.57629776 262.502285 C-94.41964489 262.51667744 -93.26299202 262.53106987 -92.07128906 262.54589844 C-90.21203104 262.54517523 -90.21203104 262.54517523 -88.31521225 262.54443741 C-84.96484769 262.54692991 -81.61547513 262.56670109 -78.26528931 262.59487915 C-75.12072326 262.61767455 -71.97618182 262.61873245 -68.83154297 262.62158203 C-59.6376196 262.64256366 -50.44380255 262.69840842 -41.25 262.75 C-10.43625 262.87375 -10.43625 262.87375 21 263 C21 221.42 21 179.84 21 137 C-1.21272229 137.15793188 -1.21272229 137.15793188 -23.42504883 137.36035156 C-27.75524902 137.37841797 -27.75524902 137.37841797 -29.79277039 137.3817749 C-31.19317229 137.38785244 -32.59355542 137.40178381 -33.99382019 137.42230225 C-46.75115308 137.5996299 -57.34788661 135.87503647 -67 127 C-75.39352847 118.70967065 -79.47819457 109.95753283 -80.25 98.1875 C-80.00951255 95.12128502 -79.81690331 93.45281947 -78 91 C-75.32366974 88.9184098 -73.88246332 89.00412409 -70.4375 89.125 C-67 90 -67 90 -65.375 91.65625 C-63.68529817 94.53642358 -63.17751439 97.09746991 -62.5625 100.375 C-60.7364814 108.71319718 -57.69715692 112.83182958 -50.90234375 117.80078125 C-47.13966474 120.17273701 -43.85214534 120.14828327 -39.5090332 120.20532227 C-38.8551059 120.21522186 -38.20117859 120.22512146 -37.5274353 120.23532104 C-35.3685873 120.26687783 -33.20971729 120.29167032 -31.05078125 120.31640625 C-29.55290662 120.33698081 -28.05503772 120.35797742 -26.55717468 120.37937927 C-22.6166143 120.43454809 -18.67600197 120.48398021 -14.73535156 120.53222656 C-10.00625685 120.59131642 -5.27725698 120.65751582 -0.54824066 120.72252655 C6.63444825 120.82047079 13.81719827 120.90937136 21 121 C21 104.83 21 88.66 21 72 C15.06 72 9.12 72 3 72 C-1 68 -1 68 -1.5 64.5 C-1 61 -1 61 0.453125 58.796875 C4.26670568 56.10631195 7.70673277 56.56542977 12.25 56.75 C13.09046875 56.76804688 13.9309375 56.78609375 14.796875 56.8046875 C16.86507395 56.85169202 18.93268441 56.92343276 21 57 C18.52726447 41.92234432 14.35867025 29.72428315 1.51171875 20.14453125 C-9.46557129 13.230375 -20.95376337 10.64974056 -33.76953125 13.0703125 C-43.5079882 15.87291559 -53.3273807 20.89867074 -59.3125 29.25 C-59.82425781 29.95640625 -60.33601562 30.6628125 -60.86328125 31.390625 C-61.42595703 32.18726562 -61.42595703 32.18726562 -62 33 C-61.03320312 33.47308594 -60.06640625 33.94617187 -59.0703125 34.43359375 C-50.62573493 38.67762449 -43.65206884 43.16518202 -37 50 C-36.37867188 50.58910156 -35.75734375 51.17820313 -35.1171875 51.78515625 C-24.59086613 62.52389218 -19.44683989 77.9894068 -18.84765625 92.75390625 C-19.03219199 96.68593703 -20.20876207 99.20876207 -23 102 C-30.15851717 102.5867637 -30.15851717 102.5867637 -33.16796875 100.48828125 C-35.62355658 97.15307987 -35.98812289 93.87567772 -36.5 89.875 C-38.66099525 75.89069648 -43.80417424 65.77439613 -54.828125 56.56640625 C-65.46937627 48.89169085 -78.10760295 45.80587614 -91.0625 47.6875 C-104.39899531 50.30655334 -115.05254532 56.83933996 -123 68 C-129.73976895 79.22777177 -131.34709423 88.70108136 -130.6796875 101.58203125 C-131.06415436 105.68457401 -131.97519808 107.24025804 -135 110 C-137.21875 110.5234375 -137.21875 110.5234375 -139.5 110.375 C-140.2528125 110.34148437 -141.005625 110.30796875 -141.78125 110.2734375 C-144 110 -144 110 -145.81640625 109.49609375 C-158.56196252 106.60041281 -171.84345815 109.69111049 -182.875 116.25 C-193.24088023 123.36619935 -199.82373255 133.82430809 -203 146 C-203.25054845 149.21375881 -203.2345849 152.40340159 -203.1875 155.625 C-203.18685547 156.470625 -203.18621094 157.31625 -203.18554688 158.1875 C-203.15863257 161.97942615 -203.03831268 165.33250353 -202 169 C-201.41734375 168.87882813 -200.8346875 168.75765625 -200.234375 168.6328125 C-197.49255455 168.0723775 -194.74730716 167.53289838 -192 167 C-191.02675781 166.80921875 -190.05351562 166.6184375 -189.05078125 166.421875 C-172.10861508 163.32134786 -172.10861508 163.32134786 -165.875 166.6875 C-163.72408203 169.34029883 -163 170.58230287 -163 174 C-165.27710843 179.63855422 -165.27710843 179.63855422 -168 181 C-169.42700625 181.22858059 -170.86091157 181.41501474 -172.296875 181.578125 C-193.98493877 184.21904019 -212.66103944 190.64362339 -227 208 C-238.67042566 223.97222277 -244.23457867 243.06173307 -241.22851562 262.68969727 C-238.11229179 280.85117027 -228.90786769 297.82918552 -213.65234375 308.66796875 C-211.80153147 309.833295 -209.90531391 310.92609579 -208 312 C-207.7525 311.443125 -207.505 310.88625 -207.25 310.3125 C-204.43816884 305.11061236 -200.72524554 301.79146203 -196 298.3125 C-194.96875 297.54550781 -193.9375 296.77851563 -192.875 295.98828125 C-188.44123442 292.921995 -185.50505793 291.21356315 -180 292 C-176.67725596 294.45594125 -175.22381992 295.9256644 -174.375 300 C-175.49349739 305.36878746 -179.57888918 307.71048454 -183.8125 310.75 C-193.86511004 318.18513799 -200.10938063 327.86700556 -203 340 C-204.59431185 354.79577705 -201.94265288 366.96574427 -193 379 C-190.5432939 382.68505915 -190.31112519 385.72036526 -191 390 C-193.0178635 393.10440538 -194.21290083 393.82508907 -197.8125 394.625 C-203.83152184 393.44479964 -206.7501049 389.81504466 -210.08203125 384.9765625 C-219.26578863 370.26982494 -223.05818144 352.92367217 -219.52832031 335.69824219 C-219.03131232 333.79553726 -218.51673286 331.89744306 -218 330 C-218 328.68 -218 327.36 -218 326 C-220.06403897 324.12477203 -220.06403897 324.12477203 -222.8125 322.4375 C-242.22457085 308.90636461 -253.79047181 289.21523384 -258 266 C-258.13148438 265.28457031 -258.26296875 264.56914062 -258.3984375 263.83203125 C-261.69593873 242.22002993 -255.74955756 219.18404027 -243.19140625 201.4453125 C-235.99363308 192.14758539 -228.06766659 184.12142818 -218 178 C-218.13929932 177.33572998 -218.27859863 176.67145996 -218.42211914 175.98706055 C-222.10012113 157.36218039 -221.6658151 138.72069986 -211.75 122.125 C-201.17272074 106.91016633 -187.6637951 96.76779132 -169.48046875 92.4921875 C-162.3615417 91.48547054 -155.17018023 91.78489459 -148 92 C-147.87044922 90.58460937 -147.87044922 90.58460937 -147.73828125 89.140625 C-145.71889449 70.68824687 -137.67022979 54.82022251 -123 43 C-111.37502058 34.53413299 -97.42649882 29.88833979 -83 30 C-80.6640625 30.48828125 -80.6640625 30.48828125 -79 31 C-78.74089844 30.11957031 -78.48179687 29.23914062 -78.21484375 28.33203125 C-73.78687231 16.18714495 -63.13036501 7.4929515 -52 1.625 C-50.01524413 0.71595151 -48.01558241 -0.16151772 -46 -1 C-45.19820312 -1.3403125 -44.39640625 -1.680625 -43.5703125 -2.03125 C-30.14395672 -6.66398618 -12.92789081 -5.56950503 0 0 Z M69 60 C67.6690684 63.39969811 67.6690684 63.39969811 68 67 C69.60086426 70.14243725 71.05092489 72.24728526 73.8125 74.4375 C77.26434916 75.32511836 79.57455106 74.96152953 83 74 C86.46011767 70.90797996 87.82065111 69.02228865 88.625 64.4375 C87.84380508 60.14092793 86.34762132 58.70997917 83 56 C77.14006205 53.07003103 73.11432182 55.50295057 69 60 Z M141 74 C139.6534392 77.72284456 139.8115572 79.4346716 141.0625 83.1875 C143.41319876 86.59980465 145.08188422 87.69396141 149 89 C152.96239846 89 154.64791407 88.25258338 157.875 85.9375 C160.28271947 82.60918191 160.68320324 80.93490958 160.43359375 76.93359375 C159.75194607 73.89381354 158.19767713 72.13303956 156 70 C149.88549698 66.94274849 145.28348899 69.30855968 141 74 Z M70 229 C68.6690684 232.39969811 68.6690684 232.39969811 69 236 C70.60086426 239.14243725 72.05092489 241.24728526 74.8125 243.4375 C78.218208 244.31325348 80.61280292 243.89136765 84 243 C86.86262257 240.99007352 88.64014872 239.56251212 89.4453125 236.06640625 C89.64769318 232.49776033 89.14571934 230.29777431 87.5625 227.0625 C84.43282295 224.54349164 82.22662097 223.96485992 78.2578125 223.7421875 C74.11080862 224.21572082 72.66646555 225.80024134 70 229 Z M132 296 C129.33736914 298.48512213 129.02837297 299.77706951 128.5625 303.4375 C129.06764835 307.55085087 130.10461516 309.10461516 133 312 C136.22878519 313.6143926 139.50903682 313.5818272 143 313 C146.60199656 310.47093858 147.76443405 308.76212513 149.0625 304.5625 C148.9831275 300.03826773 148.07165098 298.3020248 145 295 C139.66418573 292.52971562 136.84886313 292.69395696 132 296 Z M117 364 C115.57337781 366.85324437 115.68966132 368.83454549 116 372 C118.04936314 375.60687913 119.57081399 376.80925066 123.375 378.5 C127.76944907 379.10613091 129.40116485 378.53554295 133 376 C135.59848021 372.98241008 136 371.50411384 136 367.5 C134.77792202 363.22272709 133.64184981 361.55704348 130 359 C124.01342439 357.51242667 120.81197199 359.14839929 117 364 Z M111 457 C108.67150953 460.21553446 108.45542993 463.11021377 109 467 C111.45865885 470.94875513 112.98776803 472.66872408 117.4375 474.125 C121.85448522 473.97001806 123.67655139 472.85971159 127 470 C129.13991907 467.30184117 129.00027114 466.00759189 128.875 462.5 C127.92565772 458.70263089 127.02747709 457.38528498 124 455 C119.23635719 452.6181786 115.02898877 453.86634207 111 457 Z " fill="#FD5855" transform="translate(263,4)"/>
<path d="M0 0 C5.92144784 4.22086675 10.93459503 9.81334864 16 15 C16.94875 14.67 17.8975 14.34 18.875 14 C26.50412855 11.88165042 33.46083177 12.43290223 40.67578125 15.68359375 C47.19601184 19.37656469 50.88269574 24.36347136 53.33984375 31.39453125 C55.40316611 39.5379396 54.12545523 46.71618439 50 54 C45.66633993 60.01194752 40.13047399 63.19332818 33 65 C24.46091072 66.28816743 17.25637662 63.7758978 10.125 59.125 C4.18111182 53.18111182 1.90532853 47.34486803 1.8125 39.0625 C1.83513198 35.62696578 2.02478593 32.90990673 2.94140625 29.578125 C3.00769934 25.52982716 2.69376908 25.14112024 0.0703125 22.32421875 C-1.22515068 21.09101198 -2.54123858 19.87918127 -3.875 18.6875 C-5.1864506 17.46390386 -6.49642073 16.23871844 -7.8046875 15.01171875 C-8.68616455 14.21447388 -8.68616455 14.21447388 -9.58544922 13.40112305 C-11.6912705 11.31529144 -11.98878547 10.10317369 -12.3125 7.125 C-12 4 -12 4 -10.125 1.6875 C-6.37564167 -1.28993162 -4.63498257 -1.37332817 0 0 Z M19 34 C17.54852097 36.90295805 17.62760975 38.77261779 18 42 C19.81310142 44.92937654 21.87295899 47.43647949 25 49 C29.1191283 49.56169931 30.73293198 49.16628763 34.3125 46.9375 C37.51029941 43.44223087 38.08397702 41.70271287 38 37 C36.29284176 32.82694653 34.08580235 30.84833916 30 29 C24.83281717 27.94006506 22.55669578 30.60497221 19 34 Z " fill="#FD5855" transform="translate(438,220)"/>
<path d="M0 0 C5.26678739 2.14231027 10.14295088 4.49749383 14.68359375 7.95703125 C15.67359375 8.67890625 16.66359375 9.40078125 17.68359375 10.14453125 C24.97935632 16.3898568 31.0100366 27.31657058 31.8605957 36.96484375 C32.35311108 53.98115186 29.88156823 65.7947093 18.03125 78.765625 C11.0208055 85.36469867 1.22022073 89.83608956 -8.31640625 90.95703125 C-9.10144531 91.05113281 -9.88648437 91.14523438 -10.6953125 91.2421875 C-14.96053087 91.51622954 -16.7759674 91.33202964 -20.37890625 88.83203125 C-22.31640625 85.95703125 -22.31640625 85.95703125 -22.94140625 82.95703125 C-22.0491518 78.67420991 -20.93679761 77.46345604 -17.31640625 74.95703125 C-14.32828237 74.28395313 -11.35619178 73.87495682 -8.3203125 73.47265625 C-1.91971758 72.37398456 4.4534004 68.93774278 8.68359375 63.95703125 C14.59404707 55.41669733 16.19047994 47.21285365 14.68359375 36.95703125 C12.7353685 30.87476706 9.66283254 26.00990003 4.68359375 21.95703125 C4.16667969 21.52777344 3.64976563 21.09851563 3.1171875 20.65625 C-2.39873503 16.61759398 -8.30701448 15.83686656 -14.92578125 14.92578125 C-18.97596099 13.76858704 -20.15651643 12.51229543 -22.31640625 8.95703125 C-22.81640625 5.89453125 -22.81640625 5.89453125 -22.31640625 2.95703125 C-16.51685213 -4.19575216 -8.14234283 -2.56066612 0 0 Z " fill="#FD5855" transform="translate(118.31640625,133.04296875)"/>
<path d="M0 0 C0.68520218 -0.0049649 1.37040436 -0.00992981 2.07637024 -0.01504517 C4.33022077 -0.02958319 6.58400103 -0.03645308 8.83789062 -0.04199219 C10.41060385 -0.04774848 11.98331706 -0.05350615 13.55603027 -0.05926514 C16.84774094 -0.06974988 20.13942735 -0.07560973 23.43115234 -0.07910156 C27.64450686 -0.08459525 31.85753969 -0.10865233 36.07079315 -0.13707352 C39.31704647 -0.15571025 42.56322224 -0.16090594 45.80952454 -0.16243744 C47.36283638 -0.1654598 48.91614699 -0.1734743 50.46940613 -0.18662262 C52.6426136 -0.20371296 54.81503351 -0.20179661 56.98828125 -0.1953125 C58.84096619 -0.20078094 58.84096619 -0.20078094 60.7310791 -0.20635986 C64.28069303 0.19340493 66.16138426 1.02423682 68.99414062 3.16113281 C70.42076281 6.01437719 70.3044793 7.9956783 69.99414062 11.16113281 C68.40141296 13.82211304 68.40141296 13.82211304 65.99414062 16.16113281 C62.87825012 16.78018188 62.87825012 16.78018188 59.1652832 16.77294922 C58.48665222 16.77861404 57.80802124 16.78427887 57.10882568 16.79011536 C54.86821012 16.8036038 52.62921664 16.78267524 50.38867188 16.76269531 C48.82410072 16.76819842 47.25953678 16.77632568 45.69499207 16.78695679 C41.57355337 16.80985391 37.45264458 16.80562422 33.33117676 16.79315186 C26.75305625 16.77486251 20.17525112 16.78499597 13.59720421 16.81901169 C11.30998428 16.82507259 9.02344852 16.81190535 6.73628235 16.79702759 C-1.99317968 16.79029541 -9.22881079 17.18874702 -16.81835938 21.91113281 C-22.44418426 27.69769555 -23.72373166 33.48593651 -25.09960938 41.27050781 C-26.14043894 44.59039522 -26.99159512 45.51596429 -30.00585938 47.16113281 C-33.99607947 47.84031921 -35.50300725 47.50001142 -38.88085938 45.22363281 C-41.79885549 41.01828547 -41.71751889 38.12693479 -41.00585938 33.16113281 C-39.06662036 23.1788205 -34.29007377 14.16481333 -26.35351562 7.69628906 C-18.18588864 2.35539488 -9.65184038 0.05335726 0 0 Z " fill="#FD5855" transform="translate(128.005859375,321.8388671875)"/>
<path d="M0 0 C6.17642403 5.15752414 9.96599167 10.96840041 11 19 C11.2482741 27.08019343 9.69982819 33.83978595 4.2734375 39.94140625 C-1.49493216 45.44548806 -7.53898328 48.02886884 -15.5 48.375 C-22.74439842 48.07209832 -29.13179098 45.88702794 -34.42578125 40.83984375 C-40.25504376 34.0269836 -41.83783309 27.29206595 -41.48046875 18.40625 C-40.40997168 10.81703499 -36.98590091 4.82558715 -30.87109375 0.18359375 C-21.3184544 -5.85909878 -9.68518579 -5.94901313 0 0 Z M-24 16 C-25.6143926 19.22878519 -25.5818272 22.50903682 -25 26 C-22.47093858 29.60199656 -20.76212513 30.76443405 -16.5625 32.0625 C-12.03826773 31.9831275 -10.3020248 31.07165098 -7 28 C-5.12484781 23.94967126 -4.66818562 22.01496163 -6.0625 17.75 C-8.67719279 14.03882313 -10.95271288 12.36746179 -15.4375 11.5625 C-18.99210343 12.16938351 -21.17452662 13.81667966 -24 16 Z " fill="#FD5855" transform="translate(472,135)"/>
<path d="M0 0 C6.04975336 4.20803877 9.25282218 9.91824374 11 17 C12.22127622 25.92664783 10.0423092 32.43653621 5.125 39.8125 C-0.66126977 45.76895417 -6.6508228 48.06467007 -14.8125 48.375 C-22.74325071 48.23724502 -29.27484036 45.56158365 -35 40 C-40.71967045 32.48271884 -42.11423104 25.30089697 -41 16 C-38.75628583 8.64270469 -34.43604959 3.16722636 -28 -1 C-18.35147486 -5.72305426 -9.43055425 -4.74342803 0 0 Z M-23.8125 16.8125 C-25.42107062 19.77565641 -25.40804975 21.66759369 -25 25 C-23.72311154 27.80915461 -22.68900183 29.50106764 -20.1875 31.3125 C-16.58271914 32.44543113 -13.41728086 32.44543113 -9.8125 31.3125 C-6.42343759 28.85835136 -5.19235121 26.13006333 -4.5 22.0625 C-5.20295754 17.75688506 -6.80415051 15.9238623 -10 13 C-16.19798289 11.11846948 -19.35816522 12.35816522 -23.8125 16.8125 Z " fill="#FD5855" transform="translate(464,405)"/>
<path d="M0 0 C6.17642403 5.15752414 9.96599167 10.96840041 11 19 C11.2482741 27.08019343 9.69982819 33.83978595 4.2734375 39.94140625 C-1.4736776 45.42520731 -7.51736369 47.99129514 -15.4375 48.4375 C-23.24399826 48.13725007 -30.69487669 44.67524819 -36 39 C-41.35361893 31.54469512 -42.26820745 23.99086911 -41 15 C-38.63606677 7.25213073 -34.18628474 1.89595093 -27.16015625 -2.02734375 C-18.32503849 -5.94804018 -8.17141373 -5.01919618 0 0 Z M-23 15 C-25.45899354 18.68849031 -25.80114533 21.71887962 -25 26 C-22.47093858 29.60199656 -20.76212513 30.76443405 -16.5625 32.0625 C-12.09477498 31.98411886 -10.32458833 30.93800829 -7 28 C-5.37780295 25.24931804 -4.96614067 23.67718653 -5.125 20.5 C-6.42529201 16.78487998 -8.4291926 13.7854037 -12 12 C-16.65408901 11.5863032 -19.25239476 12.18929607 -23 15 Z " fill="#FD5855" transform="translate(497,327)"/>
<path d="M0 0 C10.90243692 0.13121095 19.17356883 4.27419236 26.98828125 11.76171875 C34.96683307 21.24244907 36.91313429 31.40542472 36.36669922 43.3671875 C35.45810347 53.54742111 29.60131568 61.71817678 22 68.125 C14.46680172 73.63925067 6.87648047 75.82225918 -2.40234375 75.80859375 C-5.30675767 75.28608168 -6.69691219 74.41486207 -8.8125 72.375 C-9.8125 69 -9.8125 69 -9.8125 65.375 C-7.79601869 62.07129882 -6.58810238 60.62019705 -2.859375 59.44140625 C-1.22742188 59.19197266 -1.22742188 59.19197266 0.4375 58.9375 C7.4758217 57.51561683 12.13852016 55.33606782 16.55859375 49.59375 C19.77032042 44.17048836 20.06654042 38.52828293 19.1875 32.375 C17.39399749 26.4302445 14.22317086 22.86913897 9.1875 19.375 C5.19036086 17.26539879 0.91634468 16.72769149 -3.5078125 16.03515625 C-6.13012501 15.28401928 -7.15493114 14.51429982 -8.8125 12.375 C-9.93553133 8.68503991 -10.14988847 7.06511278 -8.4375 3.5625 C-5.72636418 -0.08710592 -4.60871735 0.14214312 0 0 Z " fill="#FD5956" transform="translate(160.8125,355.625)"/>
<path d="M0 0 C10.28508905 2.61882068 18.15008784 7.38661892 23.7421875 16.5234375 C28.30598363 25.50929696 29.2593063 34.84367511 26.20703125 44.51171875 C25.26599635 46.77404346 24.20757396 48.86922957 23 51 C22.67386719 51.61488281 22.34773438 52.22976562 22.01171875 52.86328125 C17.90199935 59.60322107 10.27902701 64.35344184 2.75 66.4375 C-6.32871972 67.79930796 -6.32871972 67.79930796 -10.875 65.625 C-13 64 -13 64 -14 62 C-14.50103922 58.24220581 -14.33825869 56.51946871 -12.25 53.3125 C-8.90487833 50.93231727 -7.00547876 50.43318819 -3.0625 49.625 C2.03308228 48.4968268 4.89635694 47.3115147 7.94140625 43.01953125 C10.19094051 38.72798435 11.47081107 34.67593638 10.6171875 29.82421875 C8.84481224 24.41541838 5.86656086 20.51290712 0.75 17.8125 C-1.89004552 16.98251687 -1.89004552 16.98251687 -4.2109375 16.58203125 C-10.54984936 15.38194599 -10.54984936 15.38194599 -13.0625 13.25 C-14.34129749 10.18088602 -14.53845078 8.29801106 -14 5 C-10.1931466 -0.64887924 -6.29373602 -1.0408497 0 0 Z " fill="#FD5855" transform="translate(242,179)"/>
<path d="M0 0 C0.7734375 -0.01933594 1.546875 -0.03867188 2.34375 -0.05859375 C4.5 0.4375 4.5 0.4375 6.25390625 2.09375 C9.69294702 8.56216524 7.82252592 17.25615726 5.9375 24 C0.72333567 39.14851952 -8.31191161 50.01371935 -22.5 57.4375 C-30.84530484 60.84164165 -40.38714896 63.8948861 -49.5 62.4375 C-52.5625 60.375 -52.5625 60.375 -54.5 57.4375 C-55.0625 53.875 -55.0625 53.875 -54.5 50.4375 C-52.30836458 47.5310866 -51.06827583 46.55320565 -47.46875 45.8203125 C-46.3240625 45.73523438 -45.179375 45.65015625 -44 45.5625 C-34.02090697 44.37871581 -24.20932895 40.17639349 -17.5 32.4375 C-11.53220498 24.08812554 -9.4761194 16.17713188 -8.16015625 6.109375 C-6.97148616 1.29842622 -4.84530193 0.0080755 0 0 Z " fill="#FD5855" transform="translate(198.5,176.5625)"/>
<path d="M0 0 C0.7734375 0.00128906 1.546875 0.00257813 2.34375 0.00390625 C5.14297902 0.56679469 5.88574056 1.06581677 7.5 3.4375 C8.19988081 6.03134397 8.78426737 8.56064562 9.3125 11.1875 C10.7404943 17.45558455 12.09410279 22.4633016 17.5 26.4375 C23.56155755 30.20549524 28.7469229 31.54242865 35.875 31.61328125 C37.10734375 31.63712891 38.3396875 31.66097656 39.609375 31.68554688 C42.20295738 31.72851285 44.79676029 31.75976476 47.390625 31.77929688 C48.62296875 31.80701172 49.8553125 31.83472656 51.125 31.86328125 C52.25164062 31.87786377 53.37828125 31.89244629 54.5390625 31.9074707 C58.11249925 32.54714181 59.27261689 33.63324305 61.5 36.4375 C62.69251581 39.07807073 62.56869815 40.18144325 61.8125 43 C60.30483595 45.79994753 59.22021893 46.8133421 56.5 48.4375 C53.66601562 48.82568359 53.66601562 48.82568359 50.40625 48.8359375 C48.611875 48.84173828 48.611875 48.84173828 46.78125 48.84765625 C45.5334375 48.83605469 44.285625 48.82445312 43 48.8125 C41.783125 48.82410156 40.56625 48.83570313 39.3125 48.84765625 C25.92300628 48.80474121 14.0711154 46.44823363 4.01953125 37.140625 C-3.43829826 29.30564588 -7.58700074 21.30411703 -7.75 10.4375 C-7.77578125 9.40625 -7.8015625 8.375 -7.828125 7.3125 C-7.2372942 2.13569681 -5.25222143 -0.13130554 0 0 Z " fill="#FD5855" transform="translate(65.5,234.5625)"/>
<path d="M0 0 C3.56781839 2.42611651 4.7463865 3.7826552 5.625 8 C4.74139142 12.2413212 3.5522464 13.49253196 0 16 C-2.76879497 16.66063953 -5.52362339 17.07501861 -8.33984375 17.484375 C-12.93926447 18.37589267 -15.8168426 20.51009809 -18.6875 24.125 C-20.27108299 27.59380084 -21.22608167 31.099979 -22.15625 34.79296875 C-23 37 -23 37 -26 39 C-29.58171371 39.32561034 -32.09774552 39.4273837 -35.375 37.875 C-37.69223764 35.20126426 -37.86883428 33.54147443 -38 30 C-37.22165733 21.35542816 -33.05087831 13.50002602 -26.6875 7.625 C-19.10905924 1.68013425 -9.58798215 -1.36307339 0 0 Z " fill="#FD5855" transform="translate(187,63)"/>
<path d="M0 0 C0.76075836 -0.00570007 1.52151672 -0.01140015 2.30532837 -0.01727295 C3.91415012 -0.02671248 5.52299112 -0.03325278 7.13183594 -0.03710938 C9.58563165 -0.04681201 12.03858839 -0.0778428 14.4921875 -0.109375 C16.05728671 -0.11590585 17.62239189 -0.121156 19.1875 -0.125 C20.28304703 -0.1435202 20.28304703 -0.1435202 21.40072632 -0.16241455 C25.85334137 -0.14306693 28.69066688 0.449166 32.2265625 3.203125 C33.77243126 6.29486252 33.52015771 8.79742052 33.2265625 12.203125 C31.59694873 14.63104392 30.3102574 15.98099841 27.38378906 16.58084106 C25.06186366 16.75076972 22.77345685 16.78361531 20.4453125 16.76953125 C19.59481323 16.77572983 18.74431396 16.78192841 17.86804199 16.78831482 C16.07268416 16.79540804 14.27726048 16.79224759 12.48193359 16.77954102 C9.73542303 16.76566975 6.99231681 16.79975547 4.24609375 16.83789062 C2.49999917 16.83884181 0.75390032 16.83698303 -0.9921875 16.83203125 C-2.22201355 16.85191856 -2.22201355 16.85191856 -3.47668457 16.87220764 C-7.59798844 16.80491608 -9.17920006 16.75645396 -12.29492188 13.85522461 C-14.09274069 10.63037227 -14.31562543 8.84352967 -13.7734375 5.203125 C-10.5483076 -0.47924672 -5.94247791 0.03438774 0 0 Z " fill="#FC5855" transform="translate(225.7734375,321.796875)"/>
</svg>
