<svg width="2660.209" height="511.688" viewBox="0 0 2660.209 511.688" xmlns="http://www.w3.org/2000/svg"><g id="svgGroup" stroke-linecap="round" fill-rule="evenodd" font-size="9pt" stroke="#f8f8f8" stroke-width="0.25mm" fill="#f8f8f8" style="stroke:#f8f8f8;stroke-width:0.25mm;fill:#f8f8f8"><path d="M 2255.18 154.841 L 2135.551 154.841 Q 2135.551 124.421 2116.923 107.673 A 62.777 62.777 0 0 0 2089.749 93.584 Q 2080.165 91.175 2068.865 90.949 A 117.902 117.902 0 0 0 2066.508 90.925 Q 2034.379 90.925 2015.751 105.11 A 50.437 50.437 0 0 0 2004.041 117.365 A 42.22 42.22 0 0 0 1997.123 141.169 Q 1997.123 158.366 2013.677 172.666 A 79.903 79.903 0 0 0 2017.631 175.862 Q 2034.391 188.572 2071.926 201.966 A 589.352 589.352 0 0 0 2089.75 207.991 Q 2129.265 220.683 2157.961 234.877 A 292.61 292.61 0 0 1 2174.516 243.709 A 191.31 191.31 0 0 1 2217.054 276.199 A 132.771 132.771 0 0 1 2255.18 371.882 A 138.744 138.744 0 0 1 2247.366 419.456 A 118.976 118.976 0 0 1 2205.961 474.421 A 169.244 169.244 0 0 1 2150.744 501.47 Q 2126.896 508.448 2098.366 510.655 A 355.489 355.489 0 0 1 2070.952 511.677 Q 2010.453 511.677 1961.406 489.973 A 196.264 196.264 0 0 1 1923.134 467.907 A 147.974 147.974 0 0 1 1887.578 430.501 A 151.883 151.883 0 0 1 1863.191 355.732 A 187.379 187.379 0 0 1 1862.797 343.513 L 1983.11 343.513 A 122.546 122.546 0 0 0 1984.932 365.405 Q 1987.09 377.27 1991.805 386.537 A 55.595 55.595 0 0 0 2003.788 402.473 A 61.099 61.099 0 0 0 2023.821 414.376 Q 2042.58 421.443 2070.952 421.443 A 111.616 111.616 0 0 0 2089.722 419.963 Q 2106.554 417.087 2117.949 408.626 A 41.204 41.204 0 0 0 2134.905 378.556 A 57.414 57.414 0 0 0 2135.209 372.566 Q 2135.209 346.248 2116.581 331.55 Q 2101.353 319.535 2067.279 306.835 A 522.638 522.638 0 0 0 2051.127 301.13 Q 2004.301 285.408 1974.565 270.711 A 240.476 240.476 0 0 1 1930.003 242.963 Q 1904.735 222.704 1891.706 197.948 A 122.2 122.2 0 0 1 1877.836 140.144 A 117.083 117.083 0 0 1 1901.933 67.17 A 140.909 140.909 0 0 1 1939.864 33.124 A 189.827 189.827 0 0 1 1970.121 17.952 A 245.343 245.343 0 0 1 2031.902 2.525 A 311.023 311.023 0 0 1 2069.243 0.349 Q 2122.905 0.349 2165.458 19.49 A 163.911 163.911 0 0 1 2207.329 46.16 A 143.338 143.338 0 0 1 2231.596 74.006 A 141.125 141.125 0 0 1 2255.088 149.198 A 171.707 171.707 0 0 1 2255.18 154.841 Z M 2625.346 204.744 L 2625.346 293.953 L 2436.674 293.953 L 2436.674 412.556 L 2659.526 412.556 L 2659.526 504.841 L 2316.703 504.841 L 2316.703 7.185 L 2660.209 7.185 L 2660.209 99.812 L 2436.674 99.812 L 2436.674 204.744 L 2625.346 204.744 Z M 1227.055 7.185 L 1347.026 7.185 L 1347.026 332.918 A 218.405 218.405 0 0 1 1341.93 381.183 A 167.347 167.347 0 0 1 1323.442 428.792 A 152.779 152.779 0 0 1 1255.766 490.486 A 208.247 208.247 0 0 1 1201.08 507.621 A 288.297 288.297 0 0 1 1151.518 511.677 A 283.489 283.489 0 0 1 1093.576 506.104 Q 1042.624 495.463 1008.305 464.509 A 157.828 157.828 0 0 1 958.282 371.847 A 226.292 226.292 0 0 1 954.985 335.31 L 954.985 7.185 L 1075.639 7.185 L 1075.639 337.703 A 131.583 131.583 0 0 0 1079.936 369.408 Q 1091.36 410.693 1132.746 417.878 A 109.819 109.819 0 0 0 1151.518 419.392 A 108.313 108.313 0 0 0 1173.034 417.389 Q 1194.755 412.983 1207.914 398.884 A 60.419 60.419 0 0 0 1219.947 378.951 Q 1227.055 360.352 1227.055 332.234 L 1227.055 7.185 Z M 297.368 336.336 L 416.655 336.336 A 194.698 194.698 0 0 1 406.12 392.351 A 170.426 170.426 0 0 1 388.627 428.108 Q 362.993 467.927 316.679 489.802 A 226.517 226.517 0 0 1 250.225 509.092 A 289.987 289.987 0 0 1 210.893 511.677 A 242.106 242.106 0 0 1 143.507 502.783 A 180.698 180.698 0 0 1 56.401 447.761 A 210.002 210.002 0 0 1 13.343 368.209 Q 3.756 336.416 1.059 298.192 A 439.278 439.278 0 0 1 0.004 267.293 L 0.004 242.683 A 355.147 355.147 0 0 1 5.576 178.254 A 264.105 264.105 0 0 1 25.468 114.68 A 202.326 202.326 0 0 1 65.428 56.469 A 185.939 185.939 0 0 1 98.784 29.915 A 197.122 197.122 0 0 1 184.597 1.241 A 246.723 246.723 0 0 1 209.526 0.007 A 280.015 280.015 0 0 1 271.25 6.436 Q 320.308 17.515 355.131 47.688 A 177.608 177.608 0 0 1 411.545 141.837 A 246.542 246.542 0 0 1 417.68 179.109 L 298.051 179.109 A 156.387 156.387 0 0 0 295.687 155.566 Q 293.474 143.538 289.266 134.046 A 60.181 60.181 0 0 0 275.151 113.826 A 66.595 66.595 0 0 0 251.991 100.274 Q 241.779 96.648 229.182 95.118 A 163.32 163.32 0 0 0 209.526 94.002 A 93.858 93.858 0 0 0 182.862 97.565 A 66.95 66.95 0 0 0 143.901 127.498 Q 125.611 156.881 122.577 217.036 A 479.155 479.155 0 0 0 122.026 234.48 L 122.026 269.685 A 508.363 508.363 0 0 0 123.275 306.663 Q 127.025 357.869 142.021 383.503 A 65.979 65.979 0 0 0 186.965 415.272 A 111.236 111.236 0 0 0 210.893 417.683 A 140.993 140.993 0 0 0 234.839 415.781 Q 259.086 411.595 274.125 398.201 A 62.024 62.024 0 0 0 290.505 373.954 Q 296.663 358.189 297.368 336.336 Z M 1694.633 504.841 L 1606.791 329.158 L 1541.85 329.158 L 1541.85 504.841 L 1421.879 504.841 L 1421.879 7.185 L 1617.729 7.185 Q 1706.254 7.185 1756.157 46.492 A 127.97 127.97 0 0 1 1804.841 135.938 A 186.343 186.343 0 0 1 1806.059 157.576 A 212.763 212.763 0 0 1 1803.103 194.041 Q 1798.176 222.346 1785.038 243.709 A 131.146 131.146 0 0 1 1751.736 279.692 A 185.827 185.827 0 0 1 1719.243 299.08 L 1823.149 499.714 L 1823.149 504.841 L 1694.633 504.841 Z M 894.828 243.367 L 894.828 266.267 A 334.128 334.128 0 0 1 888.078 334.883 A 262.086 262.086 0 0 1 867.827 395.125 Q 840.825 451.179 791.093 481.428 A 208.982 208.982 0 0 1 695.394 511.079 A 255.645 255.645 0 0 1 677.787 511.677 A 235.67 235.67 0 0 1 612.546 502.937 A 201.585 201.585 0 0 1 564.995 482.454 A 198.001 198.001 0 0 1 490.888 403.924 A 238.196 238.196 0 0 1 488.261 398.884 A 265.05 265.05 0 0 1 463.092 318.606 A 337.98 337.98 0 0 1 459.379 274.128 L 459.379 246.101 A 338.512 338.512 0 0 1 465.879 178.281 A 261.917 261.917 0 0 1 486.21 117.073 A 205.18 205.18 0 0 1 533.421 52.869 A 195.079 195.079 0 0 1 563.115 30.769 Q 613.188 0.349 677.104 0.349 A 227.02 227.02 0 0 1 746.511 10.676 A 201.297 201.297 0 0 1 789.897 30.427 A 200.886 200.886 0 0 1 863.334 108.993 A 242.519 242.519 0 0 1 866.972 116.047 A 266.008 266.008 0 0 1 891.679 198.011 A 340.3 340.3 0 0 1 894.828 243.367 Z M 772.807 268.318 L 772.807 245.418 A 356.755 356.755 0 0 0 770.623 204.527 Q 765.45 159.832 748.027 132.795 A 85.649 85.649 0 0 0 723.843 107.545 Q 704.141 94.343 677.104 94.343 Q 586.87 94.343 581.743 229.695 L 581.401 266.267 Q 581.401 312.545 591.115 345.278 A 138.254 138.254 0 0 0 605.668 378.718 Q 627.582 414.212 668.725 417.655 A 108.654 108.654 0 0 0 677.787 418.025 Q 719.906 418.025 744.126 384.87 A 104.055 104.055 0 0 0 747.856 379.402 A 135.307 135.307 0 0 0 762.9 345.676 Q 772.593 313.606 772.807 268.318 Z M 1541.85 99.812 L 1541.85 236.531 L 1617.729 236.531 Q 1641.628 236.531 1657.255 227.758 A 51.186 51.186 0 0 0 1669.169 218.586 A 59.039 59.039 0 0 0 1683.554 192.38 Q 1686.026 183.14 1686.373 172.155 A 115.164 115.164 0 0 0 1686.43 168.513 A 95.622 95.622 0 0 0 1684.37 148.06 Q 1680.438 130.098 1668.998 118.098 A 55.56 55.56 0 0 0 1644.223 103.32 Q 1635.468 100.689 1624.942 100.031 A 115.69 115.69 0 0 0 1617.729 99.812 L 1541.85 99.812 Z" vector-effect="non-scaling-stroke"/></g></svg>