<svg width="5411.133" height="730.486" viewBox="0 0 5411.133 730.486" xmlns="http://www.w3.org/2000/svg"><g id="svgGroup" stroke-linecap="round" fill-rule="evenodd" font-size="9pt" stroke="#f8f8f8" stroke-width="0.25mm" fill="#f8f8f8" style="stroke:#f8f8f8;stroke-width:0.25mm;fill:#f8f8f8"><path d="M 1087.402 292.001 L 1087.402 419.443 L 817.871 419.443 L 817.871 588.876 L 1136.23 588.876 L 1136.23 720.712 L 646.484 720.712 L 646.484 9.775 L 1137.207 9.775 L 1137.207 142.099 L 817.871 142.099 L 817.871 292.001 L 1087.402 292.001 Z M 2307.617 292.001 L 2307.617 419.443 L 2038.086 419.443 L 2038.086 588.876 L 2356.445 588.876 L 2356.445 720.712 L 1866.699 720.712 L 1866.699 9.775 L 2357.422 9.775 L 2357.422 142.099 L 2038.086 142.099 L 2038.086 292.001 L 2307.617 292.001 Z M 4719.238 292.001 L 4719.238 419.443 L 4449.707 419.443 L 4449.707 588.876 L 4768.066 588.876 L 4768.066 720.712 L 4278.32 720.712 L 4278.32 9.775 L 4769.043 9.775 L 4769.043 142.099 L 4449.707 142.099 L 4449.707 292.001 L 4719.238 292.001 Z M 1340.82 9.775 L 1481.934 527.353 L 1623.535 9.775 L 1814.941 9.775 L 1575.684 720.712 L 1388.184 720.712 L 1150.879 9.775 L 1340.82 9.775 Z M 5227.539 720.712 L 5102.051 469.736 L 5009.277 469.736 L 5009.277 720.712 L 4837.891 720.712 L 4837.891 9.775 L 5117.676 9.775 A 460.323 460.323 0 0 1 5194.728 15.82 Q 5236.818 22.977 5270.583 38.606 A 224.595 224.595 0 0 1 5315.43 65.927 A 182.814 182.814 0 0 1 5384.978 193.707 A 266.204 266.204 0 0 1 5386.719 224.618 A 303.948 303.948 0 0 1 5382.496 276.712 Q 5375.458 317.148 5356.689 347.665 A 187.351 187.351 0 0 1 5309.115 399.071 A 265.467 265.467 0 0 1 5262.695 426.767 L 5411.133 713.388 L 5411.133 720.712 L 5227.539 720.712 Z M 2597.656 9.775 L 2597.656 588.876 L 2895.996 588.876 L 2895.996 720.712 L 2426.27 720.712 L 2426.27 9.775 L 2597.656 9.775 Z M 3908.203 479.501 L 3798.828 479.501 L 3798.828 720.712 L 3627.441 720.712 L 3627.441 9.775 L 3911.133 9.775 A 376.674 376.674 0 0 1 3987.976 17.282 A 294.642 294.642 0 0 1 4055.42 39.804 A 235.291 235.291 0 0 1 4124.883 89.424 A 219.329 219.329 0 0 1 4152.588 125.253 A 230.239 230.239 0 0 1 4186.709 237.933 A 279.02 279.02 0 0 1 4187.012 250.986 A 234.277 234.277 0 0 1 4174.245 329.956 A 199.593 199.593 0 0 1 4112.549 417.245 A 251.296 251.296 0 0 1 4018.602 465.593 Q 3981.845 476.024 3938.124 478.632 A 502.649 502.649 0 0 1 3908.203 479.501 Z M 233.887 720.712 L 0 720.712 L 0 9.775 L 229.004 9.775 A 356.724 356.724 0 0 1 336.785 25.64 A 317.709 317.709 0 0 1 398.438 52.499 A 300.314 300.314 0 0 1 515.869 173.105 A 355.718 355.718 0 0 1 557.422 317.912 A 427.813 427.813 0 0 1 558.594 347.665 L 558.594 380.38 A 396.749 396.749 0 0 1 545.539 483.832 A 338.722 338.722 0 0 1 517.334 555.429 A 301.613 301.613 0 0 1 401.123 676.523 A 326.928 326.928 0 0 1 245.355 720.482 A 386.698 386.698 0 0 1 233.887 720.712 Z M 3539.063 347.177 L 3539.063 379.892 A 477.326 477.326 0 0 1 3529.419 477.914 A 374.409 374.409 0 0 1 3500.488 563.974 A 297.644 297.644 0 0 1 3438.665 650.56 A 275.592 275.592 0 0 1 3390.869 687.265 Q 3319.824 730.478 3229.004 730.478 A 336.671 336.671 0 0 1 3135.803 717.992 A 287.978 287.978 0 0 1 3067.871 688.73 A 282.858 282.858 0 0 1 2962.005 576.545 A 340.279 340.279 0 0 1 2958.252 569.345 A 378.643 378.643 0 0 1 2922.296 454.661 A 482.829 482.829 0 0 1 2916.992 391.122 L 2916.992 351.083 A 483.589 483.589 0 0 1 2926.278 254.197 A 374.167 374.167 0 0 1 2955.322 166.757 Q 2993.652 86.923 3065.186 43.466 A 300.706 300.706 0 0 1 3202.738 0.868 A 367.163 367.163 0 0 1 3228.027 0.009 A 324.315 324.315 0 0 1 3327.18 14.761 A 287.568 287.568 0 0 1 3389.16 42.978 Q 3459.961 85.947 3499.268 165.292 Q 3538.574 244.638 3539.063 347.177 Z M 3364.746 382.822 L 3364.746 350.107 A 509.65 509.65 0 0 0 3361.626 291.692 Q 3354.426 229.479 3330.61 191.215 A 150.293 150.293 0 0 0 3329.346 189.218 A 122.356 122.356 0 0 0 3294.798 153.146 Q 3270.169 136.644 3237.52 134.581 A 150.537 150.537 0 0 0 3228.027 134.286 A 113.621 113.621 0 0 0 3121.006 196.319 Q 3094.973 243.806 3091.797 327.646 L 3091.309 379.892 Q 3091.309 484.384 3125.977 540.536 A 118.355 118.355 0 0 0 3162.567 578.798 Q 3185.631 593.614 3216.057 596.16 A 155.22 155.22 0 0 0 3229.004 596.689 Q 3289.173 596.689 3323.774 549.324 A 148.649 148.649 0 0 0 3329.102 541.513 Q 3364.086 486.607 3364.74 383.831 A 612.178 612.178 0 0 0 3364.746 382.822 Z M 229.004 142.099 L 171.387 142.099 L 171.387 588.876 L 230.957 588.876 A 164.962 164.962 0 0 0 279.536 582.097 A 125.361 125.361 0 0 0 344.238 536.386 Q 372.492 498.889 380.562 435.354 A 437.404 437.404 0 0 0 383.789 380.38 L 383.789 349.618 A 429.649 429.649 0 0 0 380.303 292.922 Q 376.498 264.417 368.538 241.246 A 166.89 166.89 0 0 0 344.238 194.345 A 128.418 128.418 0 0 0 256.653 144.013 A 192.101 192.101 0 0 0 229.004 142.099 Z M 3798.828 142.099 L 3798.828 347.177 L 3911.133 347.177 A 159.842 159.842 0 0 0 3939.948 344.745 Q 3956.347 341.736 3969.203 335.002 A 78.488 78.488 0 0 0 3987.061 322.275 A 81.182 81.182 0 0 0 4009.801 281.989 Q 4012.972 269.159 4013.17 253.994 A 155.491 155.491 0 0 0 4013.184 251.962 A 150.245 150.245 0 0 0 4009.715 218.751 Q 4003.871 192.946 3988.177 174.484 A 96.093 96.093 0 0 0 3986.328 172.372 A 89.732 89.732 0 0 0 3932.446 143.714 A 128.082 128.082 0 0 0 3913.086 142.099 L 3798.828 142.099 Z M 5009.277 142.099 L 5009.277 337.411 L 5117.676 337.411 A 147.968 147.968 0 0 0 5145.833 334.908 Q 5161.795 331.81 5174.142 324.878 A 73.123 73.123 0 0 0 5191.162 311.777 A 84.341 84.341 0 0 0 5211.712 274.339 Q 5215.243 261.139 5215.739 245.446 A 164.519 164.519 0 0 0 5215.82 240.243 Q 5215.82 201.405 5197.989 176.726 A 81.412 81.412 0 0 0 5190.918 168.222 Q 5168.742 144.959 5127.981 142.412 A 165.271 165.271 0 0 0 5117.676 142.099 L 5009.277 142.099 Z" vector-effect="non-scaling-stroke"/></g></svg>