<?xml version="1.0" encoding="UTF-8"?>
<svg version="1.1" xmlns="http://www.w3.org/2000/svg" width="512" height="512">
<path d="M0 0 C0.68649994 -0.00235223 1.37299987 -0.00470446 2.08030283 -0.00712797 C4.39164258 -0.01381016 6.70292601 -0.01335998 9.0142746 -0.01294994 C10.68384432 -0.01624906 12.35341326 -0.01997473 14.02298117 -0.02409142 C18.61981658 -0.03411423 23.21663893 -0.03782868 27.81348372 -0.04048073 C32.76802342 -0.044383 37.72255277 -0.05396145 42.67708588 -0.0626936 C54.64740007 -0.08246109 66.61771511 -0.09252497 78.58804154 -0.10142139 C84.22496741 -0.10580417 89.86189233 -0.11117103 95.49881744 -0.11641026 C114.23752141 -0.13342347 132.9762248 -0.14791736 151.7149353 -0.155159 C156.57834626 -0.1570689 161.44175721 -0.15898923 166.30516815 -0.16094494 C167.51394802 -0.16142868 168.72272788 -0.16191242 169.96813744 -0.16241082 C189.54691426 -0.17071002 209.12562996 -0.1960447 228.7043801 -0.22852562 C248.80522649 -0.26160078 268.90604182 -0.27960821 289.00691557 -0.28280324 C300.29285947 -0.284968 311.57871427 -0.29371167 322.86463165 -0.31926441 C332.47699992 -0.34097769 342.08925745 -0.34901873 351.70164746 -0.33929763 C356.60439359 -0.33475467 361.50691125 -0.33663902 366.40962601 -0.35605907 C370.9030514 -0.37370381 375.39608186 -0.37268237 379.88951153 -0.35716178 C381.51005716 -0.3547877 383.13063024 -0.35909889 384.75113398 -0.37099043 C396.52424575 -0.45199182 407.11745853 0.84051434 417.13817596 7.63422108 C417.9928244 8.20140858 418.84747284 8.76859608 419.72801971 9.35297108 C431.63078091 17.92747203 438.97754039 29.8966798 441.77353704 44.26768613 C442.51759023 49.2610369 442.47882898 54.22595353 442.46137238 59.26553822 C442.46519792 60.44984586 442.46902347 61.6341535 442.47296494 62.85434926 C442.48145208 66.11509202 442.48107897 69.37568937 442.47678435 72.63643575 C442.47430588 76.16346002 442.48334512 79.6904584 442.49082184 83.21747303 C442.50353974 90.11699621 442.50536618 97.01648042 442.50302158 103.91601335 C442.50123504 109.52685103 442.50299524 115.13767694 442.50724602 120.74851322 C442.50784121 121.54854841 442.5084364 122.34858359 442.50904962 123.17286227 C442.51026143 124.79838816 442.51147557 126.42391404 442.512692 128.04943992 C442.52355628 143.27704831 442.52141028 158.50463452 442.51530715 173.73224415 C442.51013869 187.64596104 442.52139355 201.5596079 442.54040537 215.47331093 C442.55980298 229.77964907 442.56803642 244.08595412 442.56428212 258.39230549 C442.56237303 266.41632558 442.56482911 274.44028607 442.57899666 282.46429539 C442.59093595 289.29508722 442.59228685 296.12578276 442.58020649 302.95657597 C442.57433569 306.43760273 442.57316812 309.91845359 442.58520889 313.39946842 C442.59569404 317.18278616 442.58756075 320.96563545 442.57489777 324.74893665 C442.58227205 325.83553636 442.58964634 326.92213608 442.59724408 328.04166305 C442.52620754 338.17400989 440.47131128 347.49122311 435.82567596 356.50922108 C435.26106659 357.63070545 434.69645721 358.75218983 434.11473846 359.90765858 C427.20382848 371.55747826 415.91700275 379.00003066 403.20067596 383.13422108 C399.52665525 384.00706066 396.13310307 384.25790845 392.36038971 384.25447559 C391.19236313 384.25585026 390.02433655 384.25722492 388.82091522 384.25864124 C387.54848969 384.25504597 386.27606415 384.25145069 384.96508026 384.24774647 C383.60475415 384.24746424 382.24442789 384.24762303 380.88410187 384.24818897 C377.19855168 384.24847556 373.51303413 384.24260123 369.82749152 384.23561502 C365.973113 384.2293584 362.11873371 384.22877585 358.26435089 384.22758961 C350.96882094 384.2244831 343.67330599 384.21627888 336.37778264 384.20624012 C328.0706926 384.19505786 319.76360183 384.1895632 311.45650613 384.18454468 C294.37122073 384.1740957 277.28594994 384.15650943 260.20067596 384.13422108 C263.55540244 389.98511213 267.0202543 395.75946008 270.5655899 401.49681568 C271.75517365 403.45077732 272.9197984 405.42018341 274.05722809 407.40495777 C280.87087992 419.92573282 280.87087992 419.92573282 292.5213089 427.088521 C301.95173281 428.79224408 311.68487517 428.18570225 321.09856129 426.57546425 C325.07609029 425.96079951 326.97546036 426.01757741 330.59984589 427.89471912 C334.07276037 430.88514854 335.1222283 432.33666978 335.57567596 436.94672108 C335.48001104 441.26758696 333.96975627 443.79503601 331.20067596 447.13422108 C328.84484288 448.31213762 327.44144778 448.26362538 324.81432629 448.27123547 C323.42310355 448.27884728 323.42310355 448.27884728 322.0037753 448.28661287 C320.46514135 448.2873595 320.46514135 448.2873595 318.89542389 448.28812122 C317.81101794 448.29250348 316.72661199 448.29688573 315.60934526 448.30140078 C311.95122919 448.31482716 308.29313723 448.32097622 304.63500214 448.32709217 C302.02216227 448.33499002 299.4093235 448.34325877 296.7964859 448.35187244 C288.9381341 448.37640691 281.07977594 448.39102456 273.22139761 448.40393251 C271.00265801 448.4076435 268.78391904 448.4116168 266.56518006 448.41568518 C252.79319109 448.44091932 239.02120114 448.4629769 225.24919415 448.47541332 C222.05846083 448.47834312 218.86772756 448.48130477 215.67699432 448.48431873 C214.88393335 448.48506478 214.09087238 448.48581083 213.27377925 448.48657949 C200.42176202 448.49923775 187.56988299 448.53246656 174.7179304 448.57412057 C161.52946727 448.61651562 148.34107495 448.64010548 135.15254384 448.64533389 C127.74503863 448.64875064 120.33774944 448.66053676 112.9303112 448.69343662 C105.96423608 448.72432515 98.99854377 448.72986764 92.03241158 448.71805286 C89.47214225 448.71783123 86.91185597 448.72620983 84.35164642 448.7437067 C80.86293069 448.76625612 77.3755998 448.75816806 73.88687897 448.74222279 C72.86781517 448.75610487 71.84875137 448.76998696 70.79880685 448.78428972 C66.06938235 448.73083208 63.92715222 448.69871977 60.09528828 445.72122097 C57.07386861 441.59562107 56.49110833 438.19839556 57.20067596 433.13422108 C59.33432183 429.62894573 61.31064001 427.45145862 65.20067596 426.13422108 C67.97510732 426.38317797 70.6458677 426.73640663 73.39208221 427.16156483 C83.82840277 428.37088554 95.38581093 429.66285422 105.20067596 425.13422108 C111.81776045 419.65802826 115.83157947 411.79808466 120.04051971 404.45062733 C121.23709535 402.48477745 122.44014035 400.52285008 123.64977264 398.56500721 C126.57623163 393.79742841 129.41904218 388.9875727 132.20067596 384.13422108 C131.50144422 384.13790825 130.80221247 384.14159542 130.08179188 384.14539433 C113.01968055 384.23396805 95.95762808 384.30003854 78.8953371 384.34146976 C70.64392368 384.36204131 62.3926643 384.3900576 54.14134979 384.43597889 C46.94435681 384.47601323 39.74747546 384.50169313 32.55037421 384.51057506 C28.74417678 384.51576193 24.93829856 384.527838 21.13220406 384.5571413 C17.5395105 384.58457387 13.94726338 384.59261091 10.35447502 384.5866518 C8.42819097 384.58825305 6.50195398 384.60962863 4.57579803 384.63190174 C-5.86431297 384.58321181 -16.0495386 382.64969856 -24.79932404 376.63422108 C-26.06776154 375.78343983 -26.06776154 375.78343983 -27.36182404 374.91547108 C-39.21246082 366.25539035 -46.57059364 354.40051888 -49.37218511 340.00075603 C-50.1162383 335.00740525 -50.07747705 330.04248863 -50.06002045 325.00290394 C-50.06575877 323.22644247 -50.06575877 323.22644247 -50.07161301 321.4140929 C-50.08010015 318.15335014 -50.07972704 314.89275279 -50.07543242 311.63200641 C-50.07295395 308.10498214 -50.08199319 304.57798376 -50.08946991 301.05096912 C-50.10218781 294.15144594 -50.10401425 287.25196174 -50.10166965 280.35242881 C-50.09988311 274.74159112 -50.10164332 269.13076521 -50.10589409 263.51992893 C-50.10648928 262.71989375 -50.10708447 261.91985856 -50.10769769 261.09557988 C-50.1089095 259.470054 -50.11012364 257.84452811 -50.11134007 256.21900223 C-50.12220435 240.99139385 -50.12005836 225.76380763 -50.11395522 210.53619801 C-50.10878676 196.62248112 -50.12004162 182.70883426 -50.13905344 168.79513122 C-50.15845105 154.48879308 -50.16668449 140.18248803 -50.16293019 125.87613666 C-50.1610211 117.85211658 -50.16347718 109.82815609 -50.17764473 101.80414677 C-50.18958402 94.97335494 -50.19093492 88.14265939 -50.17885456 81.31186618 C-50.17298376 77.83083942 -50.17181619 74.34998856 -50.18385696 70.86897373 C-50.19434211 67.08565599 -50.18620882 63.30280671 -50.17354584 59.5195055 C-50.18092012 58.43290579 -50.18829441 57.34630608 -50.19589216 56.2267791 C-50.12485561 46.09443227 -48.06995935 36.77721904 -43.42432404 27.75922108 C-42.85971466 26.6377367 -42.29510529 25.51625233 -41.71338654 24.36078358 C-34.41199862 12.05272967 -22.45561717 4.79988704 -9.06217241 0.58792239 C-6.01405348 -0.02322575 -3.10949395 0.0045389 0 0 Z M-21.33448029 34.93109608 C-28.21187113 43.99401345 -27.94921871 54.60057926 -27.9330368 65.50026417 C-27.93530236 66.62639879 -27.93756792 67.75253342 -27.93990213 68.91279334 C-27.94621907 72.67647312 -27.94541424 76.44011667 -27.94458771 80.20380116 C-27.94703809 82.9063121 -27.95095531 85.60882052 -27.95476532 88.31132984 C-27.96305455 94.88458957 -27.96581937 101.45784032 -27.9663777 108.03110484 C-27.96685365 113.37645424 -27.96891235 118.72180069 -27.97207832 124.06714916 C-27.98087995 139.23732102 -27.98549843 154.40748581 -27.98474785 169.57766024 C-27.98470789 170.39465784 -27.98466794 171.21165543 -27.98462677 172.05341053 C-27.98458589 172.87141078 -27.98454501 173.68941103 -27.98450289 174.53219917 C-27.98409649 187.78711732 -27.99366575 201.04200706 -28.00776514 214.296917 C-28.02214319 227.92178492 -28.02903454 241.54663899 -28.02817136 255.17151469 C-28.0278399 262.81490129 -28.0305647 270.45825809 -28.04134941 278.10163784 C-28.0504732 284.60932974 -28.05261425 291.11697834 -28.04583999 297.62467388 C-28.04258431 300.94150282 -28.04357933 304.25818126 -28.05119324 307.57501316 C-28.05892936 311.17915807 -28.05425744 314.78308669 -28.04656219 318.38722706 C-28.05170576 319.42363057 -28.05684932 320.46003409 -28.06214875 321.52784377 C-28.0052605 333.63071192 -26.55288926 344.33042516 -18.04932404 353.38422108 C-11.22951678 359.86049327 -4.44946448 362.25453622 4.84941292 362.26844215 C5.85473601 362.2719705 5.85473601 362.2719705 6.88036865 362.27557012 C9.13629338 362.28225094 11.39216039 362.28180218 13.64809418 362.2813921 C15.27784131 362.28469129 16.90758762 362.28841698 18.53733289 362.29253358 C23.02401382 362.30255534 27.51068137 362.30627065 31.99737191 362.30892289 C36.83326299 362.3128254 41.66914346 362.32240376 46.50502777 362.33113575 C58.18760157 362.3509014 69.87017623 362.36096639 81.55276257 362.36986354 C87.05346709 362.37424618 92.55417066 362.37961304 98.05487442 362.38485241 C116.33892937 362.40186461 134.62298372 362.41635907 152.90704536 362.42360115 C157.65222042 362.42551106 162.39739546 362.42743139 167.1425705 362.42938709 C168.32196883 362.42987083 169.50136717 362.43035457 170.71650486 362.43085297 C189.82457708 362.43915436 208.93258672 362.46449316 228.04063161 362.49696777 C247.65556304 362.53003226 267.27046266 362.54804935 286.88542211 362.55124539 C297.89967121 362.55341102 308.91382904 362.56216755 319.92805099 362.58770657 C329.30771516 362.60940517 338.68726589 362.61746808 348.0669523 362.60773978 C352.85198727 362.60319271 357.63678816 362.6051051 362.42179108 362.62450123 C366.80532347 362.6421164 371.18845072 362.64114855 375.57198732 362.62560394 C377.15481267 362.62322537 378.73766595 362.62756435 380.32044859 362.63943259 C392.23468433 362.72321065 401.5505959 361.40452405 410.44676971 352.99359608 C419.90079369 342.97106731 420.35399535 331.97465707 420.33438873 318.76817799 C420.33665429 317.64204336 420.33891985 316.51590873 420.34125406 315.35564882 C420.347571 311.59196904 420.34676617 307.82832548 420.34593964 304.064641 C420.34839002 301.36213006 420.35230724 298.65962163 420.35611725 295.95711231 C420.36440648 289.38385259 420.3671713 282.81060183 420.36772963 276.23733731 C420.36820558 270.89198791 420.37026428 265.54664146 420.37343025 260.20129299 C420.38223188 245.03112114 420.38685036 229.86095634 420.38609978 214.69078191 C420.38605982 213.87378432 420.38601987 213.05678672 420.3859787 212.21503162 C420.38593782 211.39703137 420.38589694 210.57903112 420.38585482 209.73624299 C420.38544842 196.48132483 420.39501768 183.22643509 420.40911707 169.97152516 C420.42349512 156.34665723 420.43038647 142.72180316 420.42952329 129.09692746 C420.42919183 121.45354086 420.43191663 113.81018406 420.44270134 106.16680431 C420.45182513 99.65911241 420.45396617 93.15146382 420.44719192 86.64376827 C420.44393624 83.32693933 420.44493125 80.0102609 420.45254517 76.69342899 C420.46028129 73.08928408 420.45560937 69.48535547 420.44791412 65.8812151 C420.45562947 64.32660982 420.45562947 64.32660982 420.46350068 62.74059838 C420.40661243 50.63773023 418.95424119 39.93801699 410.45067596 30.88422108 C403.63086871 24.40794889 396.85081641 22.01390593 387.55193901 22 C386.54661592 21.99647165 386.54661592 21.99647165 385.52098328 21.99287203 C383.26505855 21.98619121 381.00919154 21.98663997 378.75325775 21.98705006 C377.12351062 21.98375086 375.49376431 21.98002518 373.86401904 21.97590858 C369.37733811 21.96588681 364.89067055 21.9621715 360.40398002 21.95951927 C355.56808894 21.95561675 350.73220847 21.94603839 345.89632416 21.9373064 C334.21375036 21.91754075 322.5311757 21.90747576 310.84858936 21.89857861 C305.34788483 21.89419598 299.84718127 21.88882911 294.34647751 21.88358974 C276.06242256 21.86657755 257.77836821 21.85208309 239.49430656 21.844841 C234.74913151 21.84293109 230.00395647 21.84101076 225.25878143 21.83905506 C224.07938309 21.83857132 222.89998475 21.83808758 221.68484707 21.83758918 C202.57677485 21.8292878 183.46876521 21.803949 164.36072032 21.77147438 C144.74578889 21.7384099 125.13088927 21.7203928 105.51592982 21.71719676 C94.50168072 21.71503113 83.48752288 21.7062746 72.47330093 21.68073559 C63.09363677 21.65903698 53.71408604 21.65097407 44.33439963 21.66070237 C39.54936465 21.66524945 34.76456377 21.66333705 29.97956085 21.64394093 C25.59602846 21.62632575 21.21290121 21.6272936 16.82936461 21.64283822 C15.24653926 21.64521678 13.66368598 21.6408778 12.08090334 21.62900957 C-1.97906788 21.5301432 -11.98101098 23.98301496 -21.33448029 34.93109608 Z M135.50536346 416.06781483 C133.24973927 420.95527677 133.24973927 420.95527677 132.20067596 426.13422108 C174.44067596 426.13422108 216.68067596 426.13422108 260.20067596 426.13422108 C258.55067596 423.16422108 256.90067596 420.19422108 255.20067596 417.13422108 C253.78783417 413.08319569 253.78783417 413.08319569 253.16893768 411.08430958 C249.57111688 400.04665529 243.82199293 389.60319483 233.20067596 384.13422108 C194.46613012 371.46859271 152.73160908 376.51486636 135.50536346 416.06781483 Z " fill="#FC5856" transform="translate(59.79932403564453,31.865778923034668)"/>
<path d="M0 0 C1.92496475 -0.00874829 1.92496475 -0.00874829 3.88881767 -0.01767331 C5.30049301 -0.01404065 6.71216787 -0.01021631 8.12384224 -0.00622082 C9.63314825 -0.00924293 11.14245272 -0.01313271 12.6517545 -0.01781338 C16.79156601 -0.02809448 20.93129092 -0.02591128 25.07110953 -0.02163279 C29.53883088 -0.01916577 34.00653136 -0.02817944 38.47424507 -0.03567028 C47.22405241 -0.04841999 55.97382906 -0.05021063 64.72364412 -0.04787002 C71.83581818 -0.046087 78.94798292 -0.04783616 86.06015587 -0.05209446 C87.57850879 -0.05298724 87.57850879 -0.05298724 89.1275355 -0.05389806 C91.18389518 -0.05510981 93.24025486 -0.05632395 95.29661454 -0.05754044 C114.58152297 -0.06841703 133.86641392 -0.06625292 153.15132333 -0.06015559 C170.79197097 -0.05498638 188.43256338 -0.06624179 206.07320009 -0.08525381 C224.18869918 -0.10462787 242.30417215 -0.11288897 260.41968167 -0.10913056 C270.5893149 -0.10721785 280.75890114 -0.10971286 290.92852592 -0.1238451 C299.58606589 -0.13575435 308.24352993 -0.1371689 316.90107094 -0.12505493 C321.31736503 -0.11916305 325.7335202 -0.11807538 330.14980507 -0.13005733 C334.19511023 -0.14090514 338.24016029 -0.13782595 342.28545345 -0.12379565 C343.7463636 -0.12114568 345.20729366 -0.1235247 346.66818427 -0.13153151 C356.11433686 -0.17969714 365.76706364 -0.19643646 373.11140776 6.63105839 C378.57725407 13.27060189 380.18504592 20.20462443 380.06930733 28.59717274 C380.07569615 29.5889977 380.08208497 30.58082265 380.08866739 31.60270292 C380.10383217 34.90005215 380.08351209 38.19618337 380.06308174 41.49348927 C380.0665854 43.86781682 380.07224674 46.24214203 380.07989693 48.61645985 C380.09411664 55.04604141 380.07711181 61.47519387 380.05361176 67.90473437 C380.03334439 73.95551185 380.03875062 80.0062923 380.04108959 86.05709437 C380.04477381 98.04410396 380.02400355 110.03094734 379.98983955 122.01790333 C379.95672976 133.6393653 379.9425857 145.26065295 379.94882393 156.88216114 C379.95559237 169.5536634 379.95311654 182.22509281 379.93346453 194.89658433 C379.9319053 195.9021513 379.9319053 195.9021513 379.93031457 196.92803276 C379.92822376 198.27427682 379.92611278 199.62052084 379.9239814 200.96676483 C379.91709594 205.64538653 379.91648577 210.32397772 379.91786385 215.00260448 C379.91874274 221.30065945 379.90452492 227.59850626 379.87863731 233.89650631 C379.87147565 236.20758397 379.86939188 238.51868378 379.87275505 240.82977009 C379.87647006 243.98431566 379.861721 247.13825383 379.84225655 250.29272938 C379.84758447 251.20712778 379.8529124 252.12152618 379.85840178 253.06363362 C379.780301 260.40017341 378.1199746 265.84632933 373.19784737 271.50447559 C372.65644112 272.14900684 372.11503487 272.79353809 371.55722237 273.45760059 C364.46400077 279.49997455 356.3891558 278.68121879 347.53734016 278.64215565 C346.00257062 278.64633043 344.46780416 278.65180874 342.93304342 278.65847546 C338.72285667 278.67292987 334.51286568 278.66868538 330.30266821 278.66130865 C325.75929147 278.65657929 321.21595721 278.66908475 316.67259407 278.67932606 C307.77471915 278.69652374 298.87691481 278.69735208 289.97902758 278.69211315 C282.74718053 278.68807215 275.51535435 278.68951418 268.2835083 278.69486141 C266.73974405 278.69598405 266.73974405 278.69598405 265.16479264 278.69712936 C263.07404522 278.69866083 260.98329781 278.70019918 258.8925504 278.70174433 C239.2852845 278.71547279 219.6780585 278.71002916 200.0707935 278.69855911 C182.13199246 278.68862561 164.19329454 278.70156883 146.2545094 278.7254933 C127.83503629 278.74987381 109.41561123 278.7594948 90.9961223 278.75284058 C80.65492246 278.74934613 70.31380194 278.7515954 59.97261429 278.76909161 C51.16973145 278.78380042 42.36698382 278.78446626 33.56410367 278.76702069 C29.07296329 278.75849759 24.58206456 278.7563931 20.09093666 278.77167225 C15.97838233 278.78549026 11.86627733 278.7807936 7.75374918 278.76143301 C6.26728619 278.75766381 4.78078746 278.7606215 3.29435623 278.77104466 C-5.94651636 278.83122788 -12.56836433 278.54365925 -19.79434013 272.32478809 C-20.33316826 271.68283497 -20.87199638 271.04088184 -21.42715263 270.37947559 C-21.98144951 269.74267872 -22.53574638 269.10588184 -23.10684013 268.44978809 C-26.8666798 262.73889648 -26.84365982 257.0039179 -26.8263073 250.41298389 C-26.83154398 249.42669333 -26.83678065 248.44040277 -26.84217602 247.42422462 C-26.8571686 244.12183226 -26.85788102 240.81959495 -26.85854912 237.51717091 C-26.8661711 235.14830228 -26.87459866 232.77943613 -26.8837719 230.41057301 C-26.90572011 223.97657299 -26.91451628 217.54262049 -26.91959834 211.10858727 C-26.92285975 207.08790377 -26.9293849 203.0672298 -26.93659973 199.0465517 C-26.95616033 187.90475874 -26.9725678 176.76297461 -26.97547626 165.62116337 C-26.97566383 164.90872779 -26.9758514 164.19629222 -26.97604466 163.46226768 C-26.9764109 162.01811934 -26.9767746 160.57397099 -26.97713577 159.12982264 C-26.97731858 158.41298937 -26.97750139 157.69615609 -26.97768974 156.95760059 C-26.97787029 156.23988793 -26.97805084 155.52217527 -26.97823686 154.78271374 C-26.98177757 143.15648656 -27.00879583 131.5304447 -27.04618763 119.90428177 C-27.08430885 107.95528249 -27.10363402 96.00637509 -27.10393578 84.05731368 C-27.10451948 77.35337262 -27.11347123 70.64968606 -27.14193344 63.94579792 C-27.16811214 57.63870978 -27.17031983 51.33205912 -27.1542778 45.02494144 C-27.15246318 42.71349477 -27.15915506 40.40202295 -27.17509651 38.09063053 C-27.19557535 34.92787215 -27.1849934 31.76664183 -27.16688347 28.60390186 C-27.18008344 27.69551351 -27.1932834 26.78712515 -27.20688337 25.85120988 C-27.11022088 18.42835619 -24.97132107 11.60830142 -19.56236643 6.30271554 C-13.72812185 1.51131705 -7.50436411 0.00589034 0 0 Z M-4.55215263 23.25447559 C-4.5749427 52.79288054 -4.59265065 82.33128508 -4.60321796 111.86969697 C-4.60446874 115.3533439 -4.60576305 118.8369908 -4.60708427 122.3206377 C-4.60734658 123.01419802 -4.6076089 123.70775834 -4.60787915 124.42233563 C-4.61223591 135.66695228 -4.62012348 146.91156383 -4.62930543 158.15617745 C-4.63864182 169.68569876 -4.64413331 181.21521648 -4.64624113 192.7447415 C-4.64754867 199.22426323 -4.65063728 205.7037734 -4.65788269 212.18329144 C-4.66463886 218.2742763 -4.66677042 224.36524477 -4.66526031 230.45623302 C-4.66553683 232.6988811 -4.66754433 234.94152969 -4.67135811 237.18417454 C-4.67628906 240.23167155 -4.67515315 243.27910561 -4.67240715 246.32660389 C-4.67531999 247.22639105 -4.67823283 248.12617822 -4.68123394 249.05323166 C-5.06165605 252.96733873 -5.06165605 252.96733873 -3.55215263 256.25447559 C-1.64006314 256.35305294 0.27572645 256.38003225 2.1903553 256.38031673 C3.44575206 256.38292448 4.70114882 256.38553223 5.9945879 256.388219 C7.40584706 256.38605647 8.81710607 256.3837998 10.22836494 256.38145924 C11.71344383 256.38261007 13.19852243 256.38419734 14.68360043 256.38618648 C18.78398469 256.39038494 22.88434587 256.3882868 26.98473024 256.38520026 C31.39922592 256.38294847 35.81371748 256.38642467 40.22821236 256.38918018 C48.88390937 256.39363925 57.53959774 256.39266081 66.1952951 256.38976754 C73.22663364 256.38751404 80.25796975 256.38720075 87.28930855 256.38829136 C88.28801438 256.38844459 89.28672022 256.38859783 90.31568986 256.3887557 C92.3442026 256.38907541 94.37271533 256.38939962 96.40122807 256.38972829 C115.44646366 256.39258348 134.49169445 256.38929545 153.53692925 256.38392793 C169.89753718 256.37945985 186.25813801 256.38023577 202.6187458 256.38484669 C221.59335351 256.39019176 240.56795699 256.39230879 259.54256535 256.38923442 C261.56383896 256.38891586 263.58511257 256.38860149 265.60638618 256.38829136 C267.09835218 256.38805995 267.09835218 256.38805995 268.6204589 256.38782386 C275.64769041 256.3869585 282.67491925 256.38842198 289.70215034 256.39077091 C298.25976498 256.39356837 306.81737045 256.39283181 315.37498403 256.38749017 C319.7456451 256.38485241 324.11629085 256.38384933 328.48695183 256.38713932 C332.48142126 256.39010077 336.47586103 256.38851202 340.47032773 256.38316177 C341.92185352 256.38203693 343.37338177 256.38263022 344.82490599 256.38503756 C346.7850488 256.38804116 348.74519855 256.3843884 350.70533943 256.38031673 C351.79801219 256.38015438 352.89068495 256.37999203 354.016469 256.37982476 C356.39631578 256.52926137 356.39631578 256.52926137 357.44784737 255.25447559 C357.54584258 252.27094237 357.57776168 249.31054838 357.56810188 246.32660389 C357.56895631 245.37836532 357.56981073 244.43012674 357.57069105 243.45315367 C357.57234875 240.25010878 357.56681976 237.04711533 357.56137276 233.8440752 C357.56109092 231.55824249 357.56124855 229.27240969 357.56181526 226.98657703 C357.56210338 220.75955425 357.55620437 214.53255055 357.5492413 208.30553222 C357.54301011 201.80589407 357.54240415 195.30625554 357.5412159 188.80661488 C357.53845618 177.89038723 357.53220061 166.97416668 357.52328682 156.05794239 C357.51411346 144.81217452 357.50703225 133.56640856 357.50277901 122.3206377 C357.50251628 121.62791745 357.50225356 120.9351972 357.50198288 120.22148543 C357.50067788 116.74645154 357.49941416 113.27141765 357.49817097 109.79638374 C357.48779745 80.94907637 357.47010422 52.10177615 357.44784737 23.25447559 C354.74330374 21.90220378 352.64605689 22.12908752 349.61631966 22.12863445 C348.36651534 22.12602671 347.11671103 22.12341896 345.82903385 22.12073219 C344.42926647 22.12289458 343.02949923 22.12515125 341.62973213 22.12749195 C340.15275248 22.12634078 338.67577312 22.12475328 337.19879436 22.12276471 C333.12540315 22.1185709 329.05203522 22.12066231 324.97864389 22.12375093 C320.59141344 22.12600459 316.20418712 22.12252558 311.81695747 22.119771 C303.2165416 22.11531396 294.61613444 22.11628949 286.01571822 22.11918364 C279.02874858 22.12143793 272.04178138 22.12175009 265.05481148 22.12065983 C264.06208058 22.1205066 263.06934968 22.12035336 262.04653603 22.12019549 C260.03010456 22.11987577 258.01367309 22.11955156 255.99724162 22.11922289 C237.06928697 22.11636829 218.14133717 22.11965481 199.21338332 22.12502326 C182.95657464 22.12949128 166.6997731 22.12871534 150.44296455 22.1241045 C131.58480238 22.11875839 112.72664446 22.11664298 93.86848164 22.11971676 C91.85928218 22.12003533 89.85008272 22.1203497 87.84088326 22.12065983 C86.85220318 22.1208141 85.8635231 22.12096838 84.84488302 22.12112733 C77.86269343 22.12199237 70.88050652 22.12052988 63.89831734 22.11818027 C55.39455428 22.11538167 46.89080046 22.11612183 38.38703847 22.12146102 C34.04460024 22.12409721 29.70217743 22.12510448 25.3597393 22.12181187 C21.38992969 22.11884722 17.4201499 22.12044456 13.45034301 22.12578942 C12.00892348 22.12691288 10.56750145 22.12632398 9.12608349 22.12391363 C7.17718238 22.12090292 5.22827427 22.12456803 3.27937508 22.12863445 C2.19369964 22.12879681 1.1080242 22.12895916 -0.0105505 22.12912643 C-2.54503803 22.08316328 -2.54503803 22.08316328 -4.55215263 23.25447559 Z " fill="#FC5855" transform="translate(79.55215263366699,73.7455244064331)"/>
<path d="M0 0 C3.85190568 3.19626216 5.83162034 5.24885153 6.3125 10.25 C5.75670942 16.91948702 1.1829042 21.11148542 -3.41113281 25.63818359 C-4.20204819 26.42953705 -4.20204819 26.42953705 -5.00894165 27.23687744 C-6.73563331 28.96218687 -8.46927742 30.68032217 -10.203125 32.3984375 C-11.40853859 33.60011703 -12.61350847 34.8022418 -13.8180542 36.00479126 C-16.97662813 39.15575975 -20.14116361 42.30067339 -23.30700684 45.44433594 C-26.54164857 48.65845252 -29.77057675 51.87829787 -33 55.09765625 C-39.32777538 61.40403625 -45.6618678 67.70403023 -52 74 C-47.01934119 80.0747848 -41.52857307 85.57596098 -35.95119286 91.09340668 C-34.2631911 92.76384278 -32.57890805 94.43794896 -30.89558411 96.11309814 C-26.11411328 100.87025317 -21.32686849 105.62156749 -16.53540039 110.36865234 C-13.5935517 113.28375772 -10.65656136 116.20368483 -7.72252846 119.12665558 C-6.60603084 120.23694418 -5.48763918 121.34533151 -4.36733055 122.4517746 C-2.80697825 123.99296099 -1.25283739 125.54016358 0.30004883 127.08886719 C1.18574051 127.96710144 2.07143219 128.84533569 2.98396301 129.75018311 C5.58993248 132.65834113 5.96277158 134.49741628 6.25 138.375 C5.98179349 142.26399436 5.4129723 143.98378462 3 147 C-1.29854006 149.56819555 -5.12132328 149.90738351 -10 149 C-11.72744751 147.89433289 -11.72744751 147.89433289 -13.43212891 146.3190918 C-14.47134491 145.36019547 -14.47134491 145.36019547 -15.53155518 144.38192749 C-21.0203974 139.0854655 -26.44093205 133.72395412 -31.8359375 128.33203125 C-33.16485535 127.00633161 -34.49384625 125.6807052 -35.82290649 124.35514832 C-38.59318289 121.59082884 -41.36141615 118.82448179 -44.12841797 116.05688477 C-47.67416889 112.51103166 -51.22678377 108.97214139 -54.78114891 105.43492603 C-57.5211627 102.70601825 -60.25663217 99.97259031 -62.99083328 97.23785973 C-64.29936047 95.93051197 -65.60950811 94.62478404 -66.92130661 93.32071877 C-68.74967993 91.50212976 -70.57162438 89.67733036 -72.39208984 87.85083008 C-72.93337524 87.31516418 -73.47466064 86.77949829 -74.03234863 86.2276001 C-77.95649061 82.2702756 -79.73789229 79.74738472 -80.5625 74.25 C-80.20403069 64.55279552 -65.65928497 54.49499492 -59.11328125 47.9453125 C-57.76516129 46.59397448 -56.41711463 45.24256333 -55.06913757 43.89108276 C-52.25774006 41.07372758 -49.44431405 38.25841618 -46.62963867 35.44433594 C-43.02325175 31.83805119 -39.4238263 28.22490221 -35.82607746 24.61000252 C-33.05084635 21.82366585 -30.27109534 19.04187285 -27.49004173 16.26134872 C-26.16036537 14.93049282 -24.83230909 13.59801621 -23.50591469 12.26388931 C-21.65619271 10.40438412 -19.80025983 8.55130468 -17.94262695 6.69970703 C-17.39761032 6.14907089 -16.85259369 5.59843475 -16.2910614 5.03111267 C-11.09478458 -0.12231367 -7.34727471 -2.30331231 0 0 Z " fill="#FD5855" transform="translate(197,139)"/>
<path d="M0 0 C8.14343997 5.77101139 15.05598817 13.91078822 22.08984375 20.95703125 C23.44350341 22.31001637 24.79731141 23.66285309 26.15126038 25.01554871 C28.97266532 27.83548677 31.79227194 30.65720723 34.6105957 33.48022461 C38.22765287 37.10301144 41.84922551 40.72124598 45.47212887 44.33818531 C48.26108729 47.12353877 51.04767029 49.91125884 53.83352852 52.69971275 C55.16888548 54.03573747 56.50498753 55.37101789 57.84184074 56.70554543 C59.70159213 58.56276784 61.55812608 60.42314686 63.41381836 62.28442383 C63.96804977 62.83663101 64.52228119 63.3888382 65.0933075 63.95777893 C69.16511251 68.05240705 70.0942336 69.92657484 70.42578125 75.734375 C69.29038447 81.77593583 63.90196139 86.38158025 59.70263672 90.5402832 C59.08103668 91.16378159 58.45943665 91.78727997 57.81900024 92.42967224 C55.77740591 94.47495062 53.72873796 96.51297499 51.6796875 98.55078125 C50.25493499 99.97434091 48.83055276 101.39827124 47.40652466 102.82255554 C44.42888697 105.79863267 41.44792988 108.77132989 38.46435547 111.74145508 C34.63461809 115.55414917 30.81155075 119.37344724 26.99070549 123.19505024 C24.05371459 126.13176975 21.11412899 129.06588003 18.17364883 131.99910545 C16.76240117 133.40716591 15.35176279 134.8158373 13.94173813 136.22512245 C11.97652195 138.18817871 10.00805372 140.14791173 8.03857422 142.10668945 C7.45360168 142.69211517 6.86862915 143.27754089 6.26593018 143.88070679 C2.57854158 147.53872582 0.80366899 149.1444878 -4.375 149.1875 C-5.14585937 149.20167969 -5.91671875 149.21585938 -6.7109375 149.23046875 C-9.26561989 148.9732567 -10.82421909 148.34468863 -13 147 C-16.1529475 143.05881562 -16.53255319 139.97049643 -16 135 C-13.89010417 130.78994861 -10.93110676 127.65663577 -7.6105957 124.38354492 C-7.07371124 123.84636841 -6.53682678 123.30919189 -5.9836731 122.7557373 C-4.21907788 120.9925284 -2.44751902 119.23649792 -0.67578125 117.48046875 C0.55348112 116.25493899 1.78230082 115.02896509 3.01069641 113.80256653 C6.23669394 110.58418589 9.46865349 107.37185818 12.7019043 104.1607666 C16.003469 100.87970221 19.29934212 97.59293148 22.59570312 94.30664062 C29.05825376 87.8655056 35.52711917 81.43075267 42 75 C37.08162262 69.00868458 31.6730154 63.56783912 26.16695404 58.12235451 C24.51647617 56.48945621 22.8697292 54.85287686 21.22393799 53.21525574 C16.54908719 48.56470582 11.8684793 43.91998129 7.18359375 39.27954102 C4.30655803 36.4292907 1.4344156 33.5741847 -1.43477631 30.71603966 C-2.52532246 29.63169183 -3.61776127 28.54924396 -4.71213531 27.46875954 C-6.23878698 25.96133451 -7.75916863 24.44783907 -9.27832031 22.93286133 C-10.14402649 22.07461258 -11.00973267 21.21636383 -11.90167236 20.33210754 C-14.84935416 17.05601717 -15.88849801 15.00351791 -16.375 10.625 C-15.92573223 6.2820782 -14.8337428 4.29326866 -12 1 C-7.87881394 -1.56181836 -4.59412291 -1.32373033 0 0 Z " fill="#FD5855" transform="translate(325,139)"/>
<path d="M0 0 C2.93423195 1.79646854 4.47205355 2.9441071 6 6 C6.62959176 13.94323422 4.66901494 20.29760476 2.14794922 27.78417969 C1.73818344 29.03567307 1.32841766 30.28716644 0.90623474 31.57658386 C-0.21151656 34.98762641 -1.34625881 38.39277713 -2.48536158 41.79674053 C-3.43709444 44.64561395 -4.38067293 47.4971609 -5.32439506 50.34869599 C-7.55119548 57.07631349 -9.79214647 63.79910051 -12.04199219 70.51904297 C-14.35916201 77.44091613 -16.65197927 84.37051761 -18.93306172 91.30435824 C-20.89694769 97.27108158 -22.87594479 103.23264462 -24.86705196 109.19033933 C-26.05414168 112.74281472 -27.23545763 116.29694568 -28.40219498 119.85616302 C-29.70334912 123.82282104 -31.03587076 127.77824318 -32.37158203 131.73339844 C-32.75209213 132.90752792 -33.13260223 134.08165741 -33.52464294 135.29136658 C-35.67032706 141.54938565 -37.29733214 145.45213811 -43 149 C-46.83020573 150.05278711 -50.24565718 149.32797514 -53.875 147.75 C-56.14779727 145.8782846 -56.88364825 144.68293099 -58 142 C-58.71757786 134.15547952 -56.70902935 127.87275765 -54.19213867 120.49121094 C-53.78730759 119.26897827 -53.3824765 118.04674561 -52.96537781 116.78747559 C-51.86178285 113.45713681 -50.74154745 110.13262178 -49.61777282 106.80904675 C-48.44102031 103.32039142 -47.27875179 99.82691385 -46.11457825 96.33404541 C-44.15901258 90.47383474 -42.19315967 84.61715873 -40.22045898 78.76269531 C-37.94237866 72.00171996 -35.6778949 65.23631613 -33.4212324 58.46816421 C-31.01341585 51.24696572 -28.5964584 44.02885258 -26.17642045 36.81174183 C-25.48156271 34.73764041 -24.78832683 32.66300274 -24.09541893 30.58824921 C-22.80290122 26.72009808 -21.50008189 22.85549387 -20.19604492 18.99121094 C-19.81409973 17.84513367 -19.43215454 16.6990564 -19.03863525 15.51824951 C-18.50235756 13.93717407 -18.50235756 13.93717407 -17.95524597 12.32415771 C-17.64828891 11.41128872 -17.34133184 10.49841972 -17.02507305 9.55788803 C-13.53532249 0.84983432 -9.09980251 -1.2191123 0 0 Z " fill="#FD5855" transform="translate(282,139)"/>
</svg>
