<svg width="2059.884" height="438.292" viewBox="0 0 2059.884 438.292" xmlns="http://www.w3.org/2000/svg"><g id="svgGroup" stroke-linecap="round" fill-rule="evenodd" font-size="9pt" stroke="#f8f8f8" stroke-width="0.25mm" fill="#f8f8f8" style="stroke:#f8f8f8;stroke-width:0.25mm;fill:#f8f8f8"><path d="M 297.07 5.865 L 356.543 273.345 L 405.469 5.865 L 507.422 5.865 L 416.895 432.427 L 310.254 432.427 L 253.125 189.263 L 197.168 432.427 L 90.82 432.427 L 0 5.865 L 102.246 5.865 L 151.172 273.345 L 209.766 5.865 L 297.07 5.865 Z M 1589.063 432.427 L 1498.242 273.638 L 1456.055 319.927 L 1456.055 432.427 L 1353.223 432.427 L 1353.223 5.865 L 1456.055 5.865 L 1456.055 193.951 L 1491.797 139.752 L 1583.789 5.865 L 1710.938 5.865 L 1566.797 194.537 L 1710.938 432.427 L 1589.063 432.427 Z M 2059.863 132.427 L 1957.324 132.427 Q 1957.324 106.353 1941.357 91.998 Q 1925.987 78.178 1900.164 77.662 A 101.059 101.059 0 0 0 1898.145 77.642 Q 1877.707 77.642 1863.643 84.338 A 50.989 50.989 0 0 0 1854.639 89.8 A 43.232 43.232 0 0 0 1844.601 100.305 A 36.188 36.188 0 0 0 1838.672 120.709 A 31.062 31.062 0 0 0 1844.869 139.107 Q 1848.049 143.549 1852.861 147.705 A 68.488 68.488 0 0 0 1856.25 150.445 A 93.956 93.956 0 0 0 1868.198 157.986 Q 1886.227 167.757 1918.066 177.984 A 521.043 521.043 0 0 1 1949.02 188.95 Q 1963.984 194.822 1976.533 201.029 A 250.808 250.808 0 0 1 1990.723 208.599 A 163.98 163.98 0 0 1 2027.184 236.448 A 113.804 113.804 0 0 1 2059.863 318.462 A 118.924 118.924 0 0 1 2053.166 359.239 A 101.98 101.98 0 0 1 2017.676 406.353 A 145.066 145.066 0 0 1 1970.346 429.537 Q 1949.905 435.518 1925.451 437.411 A 304.705 304.705 0 0 1 1901.953 438.287 Q 1850.098 438.287 1808.057 419.683 A 168.226 168.226 0 0 1 1775.252 400.77 A 126.835 126.835 0 0 1 1744.775 368.707 A 130.185 130.185 0 0 1 1723.872 304.62 A 160.611 160.611 0 0 1 1723.535 294.146 L 1826.66 294.146 A 105.04 105.04 0 0 0 1828.222 312.91 Q 1830.072 323.08 1834.113 331.024 A 47.653 47.653 0 0 0 1844.385 344.683 A 52.371 52.371 0 0 0 1861.556 354.886 Q 1876.63 360.564 1898.945 360.919 A 189.147 189.147 0 0 0 1901.953 360.943 A 95.671 95.671 0 0 0 1918.042 359.674 Q 1926.608 358.211 1933.532 355.059 A 47.671 47.671 0 0 0 1942.236 349.957 A 35.318 35.318 0 0 0 1956.77 324.183 A 49.212 49.212 0 0 0 1957.031 319.048 A 50.983 50.983 0 0 0 1954.786 303.53 A 40.005 40.005 0 0 0 1941.064 283.892 A 85.442 85.442 0 0 0 1930.171 276.736 Q 1913.809 267.504 1884.961 257.818 Q 1856.073 248.118 1834.774 238.874 A 344.115 344.115 0 0 1 1819.336 231.744 Q 1736.426 191.021 1736.426 119.83 A 100.357 100.357 0 0 1 1757.08 57.281 Q 1777.734 30.181 1815.527 15.093 A 210.294 210.294 0 0 1 1868.482 1.87 A 266.592 266.592 0 0 1 1900.488 0.005 A 221.434 221.434 0 0 1 1946.672 4.636 A 179.081 179.081 0 0 1 1982.959 16.412 A 140.495 140.495 0 0 1 2018.848 39.272 A 122.861 122.861 0 0 1 2039.648 63.14 A 120.964 120.964 0 0 1 2059.784 127.59 A 147.177 147.177 0 0 1 2059.863 132.427 Z M 1195.605 432.427 L 1120.313 281.841 L 1064.648 281.841 L 1064.648 432.427 L 961.816 432.427 L 961.816 5.865 L 1129.688 5.865 A 276.194 276.194 0 0 1 1175.919 9.492 Q 1201.173 13.786 1221.432 23.164 A 134.757 134.757 0 0 1 1248.34 39.556 A 109.688 109.688 0 0 1 1290.069 116.224 A 159.722 159.722 0 0 1 1291.113 134.771 A 182.369 182.369 0 0 1 1288.58 166.027 Q 1284.357 190.289 1273.096 208.599 A 112.41 112.41 0 0 1 1244.551 239.442 A 159.28 159.28 0 0 1 1216.699 256.06 L 1305.762 428.033 L 1305.762 432.427 L 1195.605 432.427 Z M 908.789 208.306 L 908.789 227.935 Q 908.789 290.337 885.645 338.384 A 178.586 178.586 0 0 1 848.55 390.336 A 165.355 165.355 0 0 1 819.873 412.359 A 179.128 179.128 0 0 1 737.845 437.774 A 219.124 219.124 0 0 1 722.754 438.287 Q 668.262 438.287 626.074 413.238 A 169.715 169.715 0 0 1 562.555 345.927 A 204.166 204.166 0 0 1 560.303 341.607 A 227.186 227.186 0 0 1 538.729 272.797 A 289.697 289.697 0 0 1 535.547 234.673 L 535.547 210.65 A 290.153 290.153 0 0 1 541.118 152.518 A 224.5 224.5 0 0 1 558.545 100.054 A 175.869 175.869 0 0 1 599.011 45.023 A 167.21 167.21 0 0 1 624.463 26.08 A 180.424 180.424 0 0 1 706.994 0.521 A 220.298 220.298 0 0 1 722.168 0.005 A 194.589 194.589 0 0 1 781.659 8.857 A 172.541 172.541 0 0 1 818.848 25.787 A 172.188 172.188 0 0 1 881.793 93.129 A 207.873 207.873 0 0 1 884.912 99.175 A 228.007 228.007 0 0 1 906.089 169.43 A 291.685 291.685 0 0 1 908.789 208.306 Z M 804.199 229.693 L 804.199 210.064 A 305.79 305.79 0 0 0 802.327 175.015 Q 798.007 137.687 783.718 114.729 A 90.176 90.176 0 0 0 782.959 113.531 A 73.414 73.414 0 0 0 762.23 91.887 Q 747.453 81.986 727.863 80.749 A 90.322 90.322 0 0 0 722.168 80.572 Q 644.824 80.572 640.43 196.587 L 640.137 227.935 A 303.881 303.881 0 0 0 642.118 263.868 Q 646.556 301.027 660.938 324.322 Q 681.738 358.013 722.754 358.013 A 72.64 72.64 0 0 0 751.834 352.391 Q 768.09 345.373 779.616 329.595 A 89.189 89.189 0 0 0 782.812 324.908 A 115.977 115.977 0 0 0 795.708 296 Q 803.951 268.726 804.196 230.299 A 367.189 367.189 0 0 0 804.199 229.693 Z M 1064.648 85.259 L 1064.648 202.447 L 1129.688 202.447 Q 1150.172 202.447 1163.567 194.927 A 43.874 43.874 0 0 0 1173.779 187.066 A 50.605 50.605 0 0 0 1186.109 164.603 Q 1188.228 156.684 1188.525 147.268 A 98.712 98.712 0 0 0 1188.574 144.146 A 81.962 81.962 0 0 0 1186.809 126.615 Q 1184.228 114.828 1177.876 106.035 A 48.847 48.847 0 0 0 1173.633 100.933 Q 1160.327 86.976 1135.871 85.447 A 99.163 99.163 0 0 0 1129.688 85.259 L 1064.648 85.259 Z" vector-effect="non-scaling-stroke"/></g></svg>